<?xml version="1.0" standalone="no"?>
<!DOCTYPE svg PUBLIC "-//W3C//DTD SVG 20010904//EN"
 "http://www.w3.org/TR/2001/REC-SVG-20010904/DTD/svg10.dtd">
<svg version="1.0" xmlns="http://www.w3.org/2000/svg"
 width="260.000000pt" height="260.000000pt" viewBox="0 0 260.000000 260.000000"
 preserveAspectRatio="xMidYMid meet">
<metadata>
Created by potrace 1.11, written by Peter Selinger 2001-2013
</metadata>
<g transform="translate(0.000000,260.000000) scale(0.100000,-0.100000)"
fill="#000000" stroke="none">
<path d="M0 1300 l0 -1300 1300 0 1300 0 0 1300 0 1300 -1300 0 -1300 0 0
-1300z m2500 1050 l0 -50 -1215 0 -1215 0 0 50 0 50 1215 0 1215 0 0 -50z m0
-220 l0 -50 -1215 0 -1215 0 0 50 0 50 1215 0 1215 0 0 -50z m-1909 -473 c78
-35 138 -112 139 -178 0 -25 -3 -26 -67 -32 -137 -13 -146 -12 -164 32 -14 32
-25 42 -57 52 -45 13 -82 7 -106 -17 -42 -41 -12 -65 123 -99 225 -56 301
-120 301 -252 0 -95 -61 -181 -160 -227 -61 -29 -278 -31 -356 -3 -82 28 -156
122 -166 212 -3 30 -3 30 57 36 33 4 83 7 110 8 51 1 51 1 65 -41 20 -56 59
-83 120 -83 95 0 138 90 61 129 -14 8 -70 25 -123 40 -164 43 -235 91 -258
174 -15 57 -12 83 16 141 30 59 78 97 152 118 64 18 264 11 313 -10z m650
-212 c55 -215 57 -219 67 -180 6 22 32 122 58 223 l47 182 153 0 154 0 0 -375
0 -375 -95 0 -95 0 -2 273 -3 272 -70 -273 -70 -273 -89 3 -89 3 -66 259 -66
259 -3 -261 -2 -262 -100 0 -100 0 0 375 0 376 157 -3 157 -3 57 -220z m1259
140 l0 -85 -195 0 -195 0 0 -60 0 -60 180 0 180 0 0 -75 0 -75 -180 0 -180 0
0 -70 0 -70 200 0 200 0 0 -85 0 -85 -320 0 -320 0 0 375 0 375 315 0 315 0 0
-85z m0 -1115 l0 -50 -1215 0 -1215 0 0 50 0 50 1215 0 1215 0 0 -50z m0 -220
l0 -50 -1215 0 -1215 0 0 50 0 50 1215 0 1215 0 0 -50z"/>
</g>
</svg>
