<?xml version="1.0" encoding="utf-8"?>
<!-- Generator: Adobe Illustrator 26.3.1, SVG Export Plug-In . SVG Version: 6.00 Build 0)  -->
<svg version="1.1" id="Layer_1" xmlns="http://www.w3.org/2000/svg" xmlns:xlink="http://www.w3.org/1999/xlink" x="0px" y="0px"
	 viewBox="0 0 256.8 175.7" style="enable-background:new 0 0 256.8 175.7;" xml:space="preserve">
<style type="text/css">
	.st0{display:none;fill-rule:evenodd;clip-rule:evenodd;fill:#50C800;}
	.st1{fill-rule:evenodd;clip-rule:evenodd;fill:#B9BBBD;}
	.st2{fill-rule:evenodd;clip-rule:evenodd;fill:#FFFFFF;}
	.st3{fill-rule:evenodd;clip-rule:evenodd;fill:#4B4B4B;}
	.st4{fill-rule:evenodd;clip-rule:evenodd;fill:#626264;}
	.st5{fill:#939396;}
	.st6{fill:#FFFFFF;}
</style>
<path class="st0" d="M51.4-22.7h154.9c26.3,0,47.6,21.3,47.6,47.6v154.9c0,26.3-21.3,47.6-47.6,47.6H51.4
	c-26.3,0-47.6-21.3-47.6-47.6V24.8C3.8-1.4,25.1-22.7,51.4-22.7z"/>
<path class="st1" d="M253.8,138.8V66.4c-2.8-6.9-7-13.1-12.2-18.4c0.5-7.8-1.3-15.6-5.3-22.6c-2.6-4.6-9-5.2-12.6-1.3l-8.1,9
	c0,0-0.1,0-0.1,0c1-8.2-0.3-16.6-4.3-24.2c-2.5-4.7-7.9-5.5-11.6-1.7l-38.8,39.3c-0.4,0.4-0.9,0.9-1.3,1.3c0,0-0.1,0-0.1,0.1
	c-16.9,15.3-43.2,15.9-59.2,1.9c-1-1.1-2.1-2.1-3.1-3.2L58,7.2c-3.7-3.8-9.1-3-11.6,1.7c-4,7.5-5.4,15.9-4.4,24c-0.1,0-0.1,0-0.2,0
	l-8-8.9c-3.6-4-9.9-3.3-12.6,1.3c-4,6.9-5.7,14.6-5.3,22.2c-5.1,5-9.3,11-12.2,17.7v74.6c8.8,20,28.7,34,52,34h2.5
	c23,0,42.8-13.7,51.7-33.5c8.5,0,14.7-0.1,18.5-0.1c8.3,0,14.8,0,19.4,0c8.8,19.8,28.7,33.6,51.8,33.6h1.8
	C225,173.9,245.3,159.4,253.8,138.8z"/>
<path class="st2" d="M59.2,51.5c21.8,0,39.5,17.7,39.5,39.5v23.4c0,21.8-17.7,39.5-39.5,39.5c-21.8,0-39.5-17.7-39.5-39.5V90.9
	C19.8,69.1,37.5,51.5,59.2,51.5z"/>
<path class="st2" d="M197.8,51.5c21.8,0,39.5,17.7,39.5,39.5v23.4c0,21.8-17.7,39.5-39.5,39.5c-21.8,0-39.5-17.7-39.5-39.5V90.9
	C158.4,69.1,176,51.5,197.8,51.5z"/>
<path class="st3" d="M65.3,74.1c10.3,0,18.7,8.4,18.7,18.7v20c0,10.3-8.4,18.7-18.7,18.7c-10.3,0-18.7-8.4-18.7-18.7v-20
	C46.6,82.5,55,74.1,65.3,74.1z"/>
<path class="st4" d="M128.8,119.5c11.8,0,21.4,9.6,21.4,21.4v7.4c0,11.8-9.6,21.4-21.4,21.4c-11.8,0-21.4-9.6-21.4-21.4V141
	C107.4,129.1,117,119.5,128.8,119.5z"/>
<path class="st5" d="M99.2,143c2.6-13.7,15.2-23.5,30.4-23.5c13.8,0,26.3,10.1,28.8,23.5v1.1c0,0.9-0.3,1.2-1.1,1.1l-27.7,4.9
	c-0.8,0-0.9,0-1.6,0l-27.7-5c-0.8,0.1-1.1-0.2-1.1-1.1V143z"/>
<path class="st1" d="M124.3,124.2c1.4-0.3,2.9-0.5,4.4-0.5c1.6,0,3.2,0.2,4.8,0.6c3.2,0.8,5.5,3.7,5.5,7.1c0,2.7-2.2,4.8-4.8,4.8
	h-10.6c-2.7,0-4.8-2.2-4.8-4.8C118.6,128,121,125,124.3,124.2z"/>
<path class="st3" d="M191.8,74.1c10.3,0,18.7,8.4,18.7,18.7v20c0,10.3-8.4,18.7-18.7,18.7c-10.3,0-18.7-8.4-18.7-18.7v-20
	C173.1,82.5,181.4,74.1,191.8,74.1z"/>
<path class="st6" d="M49.5,96.8c6.7,0,12.1-5.4,12.1-12c0-6.6-5.4-12-12.1-12c-6.7,0-12.1,5.4-12.1,12
	C37.4,91.5,42.8,96.8,49.5,96.8z"/>
<path class="st6" d="M174.1,96.8c6.7,0,12.1-5.4,12.1-12c0-6.6-5.4-12-12.1-12c-6.7,0-12.1,5.4-12.1,12
	C162,91.5,167.4,96.8,174.1,96.8z"/>
</svg>
