<?xml version="1.0" encoding="utf-8"?>
<!-- Generator: Adobe Illustrator 26.3.1, SVG Export Plug-In . SVG Version: 6.00 Build 0)  -->
<svg version="1.1" id="Layer_1" xmlns="http://www.w3.org/2000/svg" xmlns:xlink="http://www.w3.org/1999/xlink" x="0px" y="0px"
	 viewBox="0 0 1000 586" style="enable-background:new 0 0 1000 586;" xml:space="preserve">
<g>
	<path d="M800.9,192.8c-16.6,0-32.7,2.2-48.1,6.2L696.4,43.3h104.4c19.1,0,33.8,6.8,40.3,18.7c4.5,8.2,4.1,17.4-0.9,25.3
		c-8.9,13.8-29.8,20.7-57.5,18.6c-9.5-0.6-17.7,6.5-18.4,15.9c-0.7,9.5,6.4,17.7,15.9,18.4c40.5,2.9,73-9.6,88.9-34.3
		c11.9-18.5,12.7-41.1,2.2-60.3C858.8,22.7,832.5,9,800.8,9H671.9c-5.6,0-10.9,2.7-14.1,7.3c-3.2,4.6-4,10.5-2.1,15.7l19.7,54.3
		H385.1l-9.3-25.8h46.8c9.5,0,17.2-7.7,17.2-17.2c0-9.5-7.7-17.2-17.2-17.2H310.9c-9.5,0-17.2,7.7-17.2,17.2
		c0,9.5,7.7,17.2,17.2,17.2h28.8c0.2,1.2,0.4,2.4,0.9,3.6l12,33.1l-69.8,115.1c-25.2-12.5-53.6-19.6-83.6-19.6
		C94.8,192.8,10,277.7,10,381.9C10,486.2,94.8,571,199.1,571c96.7,0,176.6-73,187.7-166.7h42.4c8.8,15.7,25.7,26.4,45,26.4
		c28.4,0,51.6-23.1,51.6-51.6c0-9.1-2.4-17.7-6.5-25.1l173.4-220l27.8,76.8c-64.2,30.3-108.7,95.6-108.7,171.1
		c0,104.3,84.8,189.1,189.1,189.1S990,486.2,990,381.9C990,277.7,905.2,192.8,800.9,192.8 M659.4,120.7l-166,210.7
		c-5.9-2.4-12.4-3.7-19.2-3.7c-0.6,0-1.2,0.1-1.9,0.1l-74.8-207L659.4,120.7L659.4,120.7z M367.5,138.8l72.8,201.6
		c-8.6,7.5-14.7,17.9-16.9,29.6h-35.7c-3.6-57.1-32.6-107.4-75.8-139.7L367.5,138.8z M353.2,370H227.4L294,260
		C327.4,286.1,349.8,325.4,353.2,370 M199.1,536.7c-85.3,0-154.7-69.4-154.7-154.7s69.4-154.7,154.7-154.7
		c23.5,0,45.7,5.4,65.6,14.8l-80.3,132.6c-2.1,3.4-2.7,7.2-2.3,10.8c-0.1,0.6-0.2,1.2-0.2,1.8c0,9.5,7.7,17.2,17.2,17.2H352
		C341.1,479.1,276.8,536.7,199.1,536.7 M474.2,396.4c-9.5,0-17.2-7.7-17.2-17.2s7.7-17.2,17.2-17.2s17.2,7.7,17.2,17.2
		C491.4,388.7,483.7,396.4,474.2,396.4 M800.9,536.7c-85.3,0-154.7-69.4-154.7-154.7c0-60.7,35.2-113.2,86.2-138.5l52.4,144.8
		c2.5,7,9.1,11.3,16.2,11.3c2,0,3.9-0.3,5.9-1c8.9-3.2,13.5-13.1,10.3-22l-52.4-144.8c11.7-2.8,23.8-4.5,36.3-4.5
		c85.3,0,154.7,69.4,154.7,154.7C955.6,467.3,886.2,536.7,800.9,536.7"/>
</g>
</svg>
