<?xml version="1.0" encoding="utf-8"?>
<!-- Generator: Adobe Illustrator 26.3.1, SVG Export Plug-In . SVG Version: 6.00 Build 0)  -->
<svg version="1.1" id="Layer_1" xmlns="http://www.w3.org/2000/svg" xmlns:xlink="http://www.w3.org/1999/xlink" x="0px" y="0px"
	 viewBox="0 0 512 512" style="enable-background:new 0 0 512 512;" xml:space="preserve">
<style type="text/css">
	.st0{fill:#E44D26;}
	.st1{fill:#F16529;}
	.st2{fill:#EBEBEB;}
	.st3{fill:#FFFFFF;}
	.st4{fill:#264DE4;}
	.st5{fill:#2965F1;}
	.st6{fill:#D6BA32;}
	.st7{fill:#FFDA3E;}
</style>
<g>
	<path class="st0" d="M22.7,255.8L0,1.4h249.2l-22.7,254.3L124.4,284"/>
	<path class="st1" d="M124.6,262.4v-240h101.9l-19.4,217"/>
	<path class="st2" d="M46.3,53.4h78.3v31.2H80.5l2.9,31.9h41.2v31.1H54.8 M56.2,163.3h31.3l2.2,24.9l34.9,9.3v32.6l-64-17.9"/>
	<path class="st3" d="M202.6,53.4h-78.2v31.2h75.3 M196.9,116.6h-72.5v31.2h38.5l-3.6,40.5l-34.8,9.3V230l63.9-17.7"/>
</g>
<g id="g3013" transform="translate(119,276.3622)">
	<polygon id="polygon2989" class="st4" points="393,-276.4 370.3,-22.3 268.4,5.9 166.7,-22.3 144.1,-276.4 	"/>
	<polygon id="polygon2991" class="st5" points="350.9,-38.5 370.3,-255.6 268.5,-255.6 268.5,-15.7 	"/>
	<polygon id="polygon2993" class="st2" points="196,-161.3 198.8,-130.2 268.5,-130.2 268.5,-161.3 	"/>
	<polygon id="polygon2995" class="st2" points="268.5,-224.4 268.4,-224.4 190.4,-224.4 193.2,-193.3 268.5,-193.3 	"/>
	<polygon id="polygon2997" class="st2" points="268.5,-48 268.5,-80.4 268.4,-80.4 233.7,-89.7 231.5,-114.6 214.6,-114.6 
		200.2,-114.6 204.6,-65.7 268.4,-48 	"/>
	<polygon id="polygon3005" class="st3" points="306.8,-130.2 303.2,-89.8 268.4,-80.4 268.4,-48 332.3,-65.7 332.8,-70.9 
		340.1,-153 340.9,-161.3 346.5,-224.4 268.4,-224.4 268.4,-193.3 312.3,-193.3 309.5,-161.3 268.4,-161.3 268.4,-130.2 	"/>
</g>
<g id="layer1" transform="translate(-326.59295,-168.33349)">
	<g id="g8487" transform="translate(-202.57553,-38.463711)">
		<g id="g3768" transform="matrix(1.25,0,0,1.25,-2.5065195,174.1722)">
			<path id="path3770" class="st6" d="M530.3,209.3c22.3-0.9,44.7,0.3,67-0.1c24.6-0.8,49.3-0.1,73.9,0c19.6,0,39.1-0.1,58.7,0.1
				c-6.2,67.9-12.4,135.8-18.1,203.7c-26.2,7.5-52.4,14.8-78.6,22.2c-3.4,1.4-6.8,0.1-10-0.8c-24.9-7.2-49.8-14.3-74.8-21.1
				C542,345.3,535.8,277.3,530.3,209.3 M630.6,227c-0.9,33.5-0.1,67-0.4,100.4c0.2,30.6-0.4,61.3,0.4,91.9
				c22-5.2,43.8-11.6,65.5-17.9c5.5-58.1,10.8-116.2,15.4-174.4C684.4,226.8,657.5,227.1,630.6,227 M602.5,357.7
				c-12.9-3.5-25.7-7.6-38.8-10.4c-0.4,7.8-0.2,15.6,0.6,23.3c19.2,4.7,38,10.8,57.2,15.4c0.1-44.3-0.1-88.7,0.1-133
				c-6.3-0.2-12.5-0.2-18.8-0.4C602.2,287.7,602.8,322.7,602.5,357.7L602.5,357.7z"/>
		</g>
		<g id="g3796" transform="matrix(1.25,0,0,1.25,-2.5065195,174.1722)">
			<path id="path3798" class="st7" d="M630.6,227c26.9,0.1,53.9-0.2,80.8,0c-4.6,58.2-9.9,116.3-15.4,174.4
				c-21.7,6.3-43.5,12.7-65.5,17.9c-0.8-30.6-0.1-61.3-0.4-91.9C630.4,294,629.6,260.5,630.6,227 M638.1,253
				c0.1,28.8,0.1,57.7,0,86.5c13.2-2.1,26.3-4.6,39.4-7c-0.2,6.7-0.5,13.4-0.8,20.1c-12.8,3.4-25.5,6.9-38.4,10.1
				c-0.2,7.7-0.2,15.5-0.2,23.3c16.2-3.6,32.1-8.2,48.2-12.2c2-0.9,5.9-0.8,5.7-4c1.9-20.7,3.2-41.5,5-62.3
				c-13.3,1.1-26.5,3.3-39.8,4.3c-0.1-11.8-0.1-23.5,0-35.3c14,0,28,0,42,0c0.9-7.9,1.7-15.7,2.3-23.6
				C680.5,252.9,659.3,252.6,638.1,253L638.1,253z"/>
		</g>
		<path id="path3806" class="st2" d="M750.7,621.4c0.4-43.8-0.5-87.6,0.4-131.3c7.8,0.2,15.7,0.3,23.5,0.5
			c-0.2,55.4,0.1,110.9-0.1,166.3c-24-5.7-47.5-13.4-71.5-19.3c-1.1-9.7-1.3-19.4-0.8-29.2C718.5,611.8,734.5,616.9,750.7,621.4z"/>
	</g>
</g>
</svg>
