<?xml version="1.0" encoding="utf-8"?>
<!-- Generator: Adobe Illustrator 26.3.1, SVG Export Plug-In . SVG Version: 6.00 Build 0)  -->
<svg version="1.1" id="Layer_1" xmlns="http://www.w3.org/2000/svg" xmlns:xlink="http://www.w3.org/1999/xlink" x="0px" y="0px"
	 viewBox="0 0 221 192" style="enable-background:new 0 0 221 192;" xml:space="preserve">
<style type="text/css">
	.st0{fill:url(#outer_00000153668150007716259980000006981454503882383023_);}
	.st1{fill:url(#SVGID_1_);}
	.st2{fill:url(#SVGID_00000107581941600813800760000003152050887606993066_);}
	.st3{fill:#FFFFFF;}
	.st4{fill:url(#SVGID_00000096769055815432997250000012672029475713162671_);}
	.st5{fill:#565F64;}
	.st6{fill:url(#SVGID_00000110471108405340647560000005089818814120067469_);}
	.st7{fill:#A4AAAE;fill-opacity:0.6;}
	.st8{fill:#333E46;}
	.st9{fill:url(#SVGID_00000005233193673600907080000004620597766348087176_);}
	.st10{fill:url(#SVGID_00000072248901622470469380000001381572447163850940_);}
	.st11{fill:url(#SVGID_00000003073370746256141200000004640252314999731352_);}
	.st12{fill:url(#SVGID_00000038388933432940372670000004092811823357179831_);}
	.st13{fill:url(#SVGID_00000084522463462442710750000008541681835262676669_);}
	.st14{fill:url(#SVGID_00000150100416926327298340000005469780448269281680_);}
	.st15{fill:url(#SVGID_00000130637128352178277580000005545736116068148408_);}
	.st16{fill:url(#SVGID_00000063606147568094641400000009582343564758492563_);}
	.st17{fill:url(#SVGID_00000074420414664656737310000003301091762714747040_);}
	.st18{fill:url(#SVGID_00000147918007118384866270000009503393498422383270_);}
	.st19{fill:#FBFBFB;}
	.st20{fill:#333F47;}
	.st21{fill-rule:evenodd;clip-rule:evenodd;}
	.st22{fill:#00A19B;}
</style>
<g transform="matrix(1.7396 0 0 1.7396 56.085 55.726)">
	<g transform="translate(-32,-32)">
		<g>
			
				<linearGradient id="outer_00000086686787019464517360000016903481549797542039_" gradientUnits="userSpaceOnUse" x1="-77.0279" y1="227.5612" x2="-76.0278" y2="227.5612" gradientTransform="matrix(83.5008 69.9319 69.9319 -83.5008 -9442.6543 24401.6172)">
				<stop  offset="0" style="stop-color:#FFFFFF"/>
				<stop  offset="0.1" style="stop-color:#E7E8E6"/>
				<stop  offset="0.1" style="stop-color:#CDD0D0"/>
				<stop  offset="0.2" style="stop-color:#B5BBBD"/>
				<stop  offset="0.2" style="stop-color:#A5ACAF"/>
				<stop  offset="0.3" style="stop-color:#9BA3A7"/>
				<stop  offset="0.3" style="stop-color:#98A0A4"/>
				<stop  offset="0.4" style="stop-color:#828A8F"/>
				<stop  offset="0.5" style="stop-color:#667075"/>
				<stop  offset="0.6" style="stop-color:#535C63"/>
				<stop  offset="0.7" style="stop-color:#475158"/>
				<stop  offset="0.8" style="stop-color:#434D54"/>
				<stop  offset="1" style="stop-color:#475157"/>
			</linearGradient>
			<path id="outer_24_" style="fill:url(#outer_00000086686787019464517360000016903481549797542039_);" d="M94.6,33.5
				c0,17.3-14,31.3-31.3,31.3S32,50.8,32,33.5S46,2.2,63.3,2.2S94.6,16.2,94.6,33.5z M63.3,4.1C47,4.1,33.9,17.2,33.9,33.5
				s13.2,29.4,29.4,29.4c16.3,0,29.4-13.2,29.4-29.4C92.7,17.2,79.6,4.1,63.3,4.1z"/>
			
				<linearGradient id="SVGID_1_" gradientUnits="userSpaceOnUse" x1="-76.9547" y1="227.5769" x2="-75.9547" y2="227.5769" gradientTransform="matrix(78.282 65.7569 65.7569 -78.282 -8899.8516 22890.0039)">
				<stop  offset="0" style="stop-color:#0B1F2A"/>
				<stop  offset="0.2" style="stop-color:#333F47"/>
				<stop  offset="0.5" style="stop-color:#777F84"/>
				<stop  offset="0.5" style="stop-color:#81898D"/>
				<stop  offset="0.7" style="stop-color:#B3B8B8"/>
				<stop  offset="0.8" style="stop-color:#D2D5D3"/>
				<stop  offset="0.8" style="stop-color:#DEE0DD"/>
				<stop  offset="1" style="stop-color:#FBFBFB"/>
			</linearGradient>
			<path class="st1" d="M63.3,4.1C47,4.1,33.9,17.2,33.9,33.5s13.2,29.4,29.4,29.4c16.3,0,29.4-13.2,29.4-29.4
				C92.7,17.2,79.6,4.1,63.3,4.1z M63.3,61c-15.2,0-27.5-12.3-27.5-27.5S48.1,6,63.3,6s27.5,12.3,27.5,27.5S78.5,61,63.3,61z"/>
			
				<linearGradient id="SVGID_00000080907436236904882390000010271648798312894372_" gradientUnits="userSpaceOnUse" x1="-79.012" y1="226.6188" x2="-78.012" y2="226.6188" gradientTransform="matrix(-38.0972 -104.7239 -104.7239 38.0972 20796.4629 -16844.4629)">
				<stop  offset="0" style="stop-color:#E1E3E1;stop-opacity:0.4"/>
				<stop  offset="0.1" style="stop-color:#C1C5C4;stop-opacity:0.4"/>
				<stop  offset="0.3" style="stop-color:#9BA1A2;stop-opacity:0.4"/>
				<stop  offset="0.5" style="stop-color:#7D8487;stop-opacity:0.4"/>
				<stop  offset="0.7" style="stop-color:#687074;stop-opacity:0"/>
				<stop  offset="0.8" style="stop-color:#5B6469;stop-opacity:0"/>
				<stop  offset="1" style="stop-color:#576065;stop-opacity:0"/>
			</linearGradient>
			<path style="fill:url(#SVGID_00000080907436236904882390000010271648798312894372_);" d="M63.3,64.8c17.3,0,31.3-14,31.3-31.3
				S80.6,2.2,63.3,2.2S32,16.2,32,33.5S46,64.8,63.3,64.8z M63.3,1.5c17.6,0,32,14.4,32,32s-14.4,32-32,32s-32-14.4-32-32
				S45.7,1.5,63.3,1.5z"/>
			<path class="st3" d="M33.5,33.6c0-16.4,13.3-29.9,29.8-29.9s29.8,13.4,29.8,29.9c0,16.4-13.3,29.7-29.8,29.7S33.5,50,33.5,33.6z
				 M42.8,13c-5.3,5.3-8.6,12.6-8.6,20.6s3.3,15.3,8.5,20.5c5.3,5.2,12.6,8.5,20.6,8.5s15.3-3.2,20.5-8.5c5.3-5.2,8.5-12.5,8.5-20.5
				S89,18.3,83.8,13c-5.2-5.3-12.5-8.6-20.5-8.6S48,7.7,42.8,13z"/>
			
				<linearGradient id="SVGID_00000043436423482670932000000011476135317147242405_" gradientUnits="userSpaceOnUse" x1="-77.0356" y1="228.0149" x2="-76.0356" y2="228.0149" gradientTransform="matrix(48.013 83.1529 83.1529 -48.013 -15211.9355 17362.9707)">
				<stop  offset="0" style="stop-color:#E1E3E1;stop-opacity:0.4"/>
				<stop  offset="0.1" style="stop-color:#C1C5C4;stop-opacity:0.4"/>
				<stop  offset="0.3" style="stop-color:#9BA1A2;stop-opacity:0.4"/>
				<stop  offset="0.5" style="stop-color:#7D8487;stop-opacity:0.4"/>
				<stop  offset="0.7" style="stop-color:#687074;stop-opacity:0"/>
				<stop  offset="0.8" style="stop-color:#5B6469;stop-opacity:0"/>
				<stop  offset="1" style="stop-color:#576065;stop-opacity:0"/>
			</linearGradient>
			<path style="fill:url(#SVGID_00000043436423482670932000000011476135317147242405_);" d="M63.3,61.1c-7.4,0-14.3-2.9-19.5-8.1
				s-8.1-12.1-8.1-19.5s2.9-14.3,8.1-19.5s12.1-8.1,19.5-8.1c7.4,0,14.3,2.9,19.5,8.1c5.2,5.2,8.1,12.1,8.1,19.5S88,47.8,82.8,53
				S70.7,61.1,63.3,61.1z M63.3,60.3c7.1,0,13.9-2.8,18.9-7.8c5.1-5.1,7.8-11.8,7.8-18.9s-2.8-13.9-7.8-18.9
				c-5.1-5.1-11.8-7.8-18.9-7.8s-13.9,2.8-18.9,7.8c-5.1,4.9-7.9,11.7-7.9,18.8s2.8,13.9,7.8,18.9C49.4,57.5,56.2,60.3,63.3,60.3z"
				/>
			<path class="st3" d="M87.6,46.5c-0.5-0.4-19.8-15.7-19.8-15.7L63.3,5.1c-0.3,0.1-0.7,0.4-0.9,0.8l-3.2,25L39.3,46.2
				c0,0-0.4,0.5-0.6,0.8c-0.1,0.2-0.1,0.5-0.1,0.8l24.6-10.1l24.6,10.1C88,47.3,87.8,46.8,87.6,46.5z"/>
			<path class="st5" d="M63.5,34.3l-0.2,4.6L85.9,48c0.8,0.4,1.4,0.2,2-0.2L63.8,34.2C63.7,34.1,63.5,34.2,63.5,34.3z"/>
			
				<linearGradient id="SVGID_00000019656663578234375020000017790588293921897403_" gradientUnits="userSpaceOnUse" x1="-78.8751" y1="249.3265" x2="-77.8751" y2="249.3265" gradientTransform="matrix(-2.9573 4.8709 4.8709 2.9573 -1371.9569 -312.284)">
				<stop  offset="0" style="stop-color:#27343C"/>
				<stop  offset="1" style="stop-color:#00111E;stop-opacity:0"/>
			</linearGradient>
			<path style="fill:url(#SVGID_00000019656663578234375020000017790588293921897403_);" d="M63.5,34.3c0,0,1.3,2.3,2.8,3.9
				c2.1,2.3,4.9,3.9,4.9,3.9L85.9,48c0.8,0.4,1.4,0.2,2-0.2L63.8,34.2C63.7,34.1,63.5,34.2,63.5,34.3z"/>
			<path class="st7" d="M87.8,46.9c0-0.1-0.1-0.2-0.2-0.4L67,31.4l-2.8,1.8c0,0,0.2,0.1,0.3,0c0.3-0.1,0.9-0.2,1.5,0
				C66.5,33.4,87.8,47,87.8,46.9L87.8,46.9z"/>
			<path class="st8" d="M87.1,46L67.9,30.8L67,31.4l20.6,15.2C87.5,46.4,87.3,46.2,87.1,46z"/>
			<path class="st5" d="M63.8,32.8L63.8,32.8c-0.1,0.1-0.1,0.3,0.1,0.2c0.1-0.1,3-1.6,4-2.2l-3.5-24c-0.1-0.9-0.5-1.3-1.2-1.6
				L63.6,33L63.8,32.8z"/>
			<path class="st7" d="M62.1,6.8v1.3l-2.2,22.1c0,0.3,0.1,0.6,0.4,0.8l1.3,1l0.9-24.4l0.1-1.9C62.3,5.9,62.2,6.3,62.1,6.8z"/>
			<path class="st7" d="M60.9,32.4l-1.2-1L39.4,46.1c0,0-0.6,0.4-0.7,0.8l0.7-0.4l21.3-13.4C61.1,32.9,61.2,32.7,60.9,32.4z"/>
			<path class="st5" d="M63,34.3c0-0.1-0.1-0.2-0.2-0.1L38.6,47.9c0.6,0.4,1.2,0.5,2,0.2L63.2,39L63,34.3z"/>
			
				<linearGradient id="SVGID_00000098187396941845331990000016152328281758572197_" gradientUnits="userSpaceOnUse" x1="-90.0787" y1="220.824" x2="-89.0787" y2="220.824" gradientTransform="matrix(-4.8709 -7.8282 -7.8282 4.8709 1360.7247 -1750.1786)">
				<stop  offset="0" style="stop-color:#02131F"/>
				<stop  offset="0.1" style="stop-color:#02131F"/>
				<stop  offset="0.9" style="stop-color:#02131F;stop-opacity:0"/>
				<stop  offset="1" style="stop-color:#02131F;stop-opacity:0"/>
			</linearGradient>
			<path style="fill:url(#SVGID_00000098187396941845331990000016152328281758572197_);" d="M63.7,32.9L63.7,32.9L63.7,32.9
				c0,0,0,0.1,0.1,0.1h0.1c0.1-0.1,3-1.6,4-2.2l-0.4-2.9L64.4,6.8c0-0.4-0.1-0.7-0.3-0.9c0,0,1.5,20.2,1.5,22.4
				C65.6,31.2,63.7,32.9,63.7,32.9z"/>
			
				<linearGradient id="SVGID_00000093146918227020734030000002855312088539981990_" gradientUnits="userSpaceOnUse" x1="-89.7495" y1="239.072" x2="-88.7495" y2="239.072" gradientTransform="matrix(-7.3063 2.0875 2.0875 7.3063 -1091.5713 -1521.5758)">
				<stop  offset="0" style="stop-color:#02131F;stop-opacity:0.8"/>
				<stop  offset="0.2" style="stop-color:#02131F;stop-opacity:0.8"/>
				<stop  offset="0.9" style="stop-color:#02131F;stop-opacity:0"/>
				<stop  offset="1" style="stop-color:#02131F;stop-opacity:0"/>
			</linearGradient>
			<path style="fill:url(#SVGID_00000093146918227020734030000002855312088539981990_);" d="M63,34.3c0-0.1-0.1-0.2-0.2-0.1
				L38.6,47.9c0.6,0.4,1.2,0.5,2,0.2L63.2,39L63,34.3z"/>
			
				<linearGradient id="SVGID_00000112622545369070088540000013112121974814451344_" gradientUnits="userSpaceOnUse" x1="-112.9063" y1="199.415" x2="-111.9063" y2="199.415" gradientTransform="matrix(-1.0438 -2.6094 -2.6094 1.0438 454.5508 -459.3852)">
				<stop  offset="0" style="stop-color:#02131F;stop-opacity:0.8"/>
				<stop  offset="0.1" style="stop-color:#02131F;stop-opacity:0.8"/>
				<stop  offset="1" style="stop-color:#02131F;stop-opacity:0"/>
			</linearGradient>
			<path style="fill:url(#SVGID_00000112622545369070088540000013112121974814451344_);" d="M40.6,48l22.6-9.1L63,34.5
				c-0.4,1.2-1.1,2.5-3,3.5c-1.4,0.8-14.8,7.4-19.6,9.7c-0.3,0.2-0.7,0.3-0.9,0.4C39.9,48.3,40.2,48.2,40.6,48z"/>
			
				<linearGradient id="SVGID_00000060017377207801739250000012085034036894789818_" gradientUnits="userSpaceOnUse" x1="-95.158" y1="239.7523" x2="-94.158" y2="239.7523" gradientTransform="matrix(-5.9146 0.6958 0.6958 5.9146 -662.7999 -1333.1488)">
				<stop  offset="0" style="stop-color:#02131F"/>
				<stop  offset="0.3" style="stop-color:#02131F"/>
				<stop  offset="0.8" style="stop-color:#02131F;stop-opacity:0"/>
				<stop  offset="1" style="stop-color:#02131F;stop-opacity:0"/>
			</linearGradient>
			<path style="fill:url(#SVGID_00000060017377207801739250000012085034036894789818_);" d="M63.8,32.8L63.8,32.8
				c-0.1,0.1-0.1,0.3,0.1,0.2c0.1-0.1,3-1.6,4-2.2l-3.5-24c-0.1-0.9-0.5-1.3-1.2-1.6L63.6,33L63.8,32.8z"/>
			
				<linearGradient id="SVGID_00000075840668148917238910000004212667165993333920_" gradientUnits="userSpaceOnUse" x1="-103.0163" y1="245.9801" x2="-102.0163" y2="245.9801" gradientTransform="matrix(-4.0011 0.5219 0.5219 4.0011 -473.5883 -911.7963)">
				<stop  offset="0" style="stop-color:#27343C"/>
				<stop  offset="0.4" style="stop-color:#27343C"/>
				<stop  offset="1" style="stop-color:#3B474E;stop-opacity:0"/>
			</linearGradient>
			<path style="fill:url(#SVGID_00000075840668148917238910000004212667165993333920_);" d="M63.8,32.8L63.8,32.8
				c-0.1,0.1-0.1,0.3,0.1,0.2c0.1-0.1,3-1.6,4-2.2l-3.5-24c-0.1-0.9-0.5-1.3-1.2-1.6L63.6,33L63.8,32.8z"/>
			
				<linearGradient id="SVGID_00000101078827442936772190000000753323998419735936_" gradientUnits="userSpaceOnUse" x1="-75.9228" y1="227.375" x2="-74.9228" y2="227.375" gradientTransform="matrix(48.5348 28.0076 28.0076 -48.5348 -2652.426 13196.3252)">
				<stop  offset="0" style="stop-color:#24303A;stop-opacity:0"/>
				<stop  offset="0" style="stop-color:#25323B;stop-opacity:0"/>
				<stop  offset="0.1" style="stop-color:#27343C"/>
				<stop  offset="1" style="stop-color:#27343C"/>
			</linearGradient>
			<path style="fill:url(#SVGID_00000101078827442936772190000000753323998419735936_);" d="M36.4,45.9c-0.7-1.6-4.7-9.4-0.3-24.4
				h-1.7c-0.9,3-1.6,4.8-2,7.5c0,0-0.2,1-0.3,2.1C32,32.2,32,32.8,32,33.5c0,6,1.5,9.5,1.5,9.5c1.6,5,4.4,9.5,8.2,12.9
				c3.3,2.9,8.4,5.1,12.6,5.9C53.6,61.7,41.6,56.6,36.4,45.9z"/>
			
				<linearGradient id="SVGID_00000115503190719035462120000009053165186262781371_" gradientUnits="userSpaceOnUse" x1="-85.5251" y1="214.2823" x2="-84.5251" y2="214.2823" gradientTransform="matrix(0 -8.3501 -8.3501 0 1852.4769 -675.2708)">
				<stop  offset="0" style="stop-color:#A5ABAF"/>
				<stop  offset="0.3" style="stop-color:#A5ABAF"/>
				<stop  offset="1" style="stop-color:#A5ABAF;stop-opacity:0"/>
			</linearGradient>
			<path style="fill:url(#SVGID_00000115503190719035462120000009053165186262781371_);" d="M63.7,34.1h-0.9c0.1,0,0.2,0,0.2,0.1
				l0.2,4.6h0.1l0.2-4.6C63.5,34.1,63.6,34,63.7,34.1z"/>
			
				<linearGradient id="SVGID_00000083768682665972501300000009442903062940670875_" gradientUnits="userSpaceOnUse" x1="-77.5792" y1="228.3789" x2="-76.5792" y2="228.3789" gradientTransform="matrix(0 106.1156 106.1156 0 -24155.6621 8236.1367)">
				<stop  offset="0" style="stop-color:#DEE0DD"/>
				<stop  offset="0" style="stop-color:#C5C9C7"/>
				<stop  offset="0" style="stop-color:#9EA4A5"/>
				<stop  offset="0" style="stop-color:#82898C"/>
				<stop  offset="0" style="stop-color:#71797D"/>
				<stop  offset="0" style="stop-color:#6B7378"/>
				<stop  offset="0.2" style="stop-color:#333F47"/>
				<stop  offset="0.5" style="stop-color:#27343C"/>
				<stop  offset="0.8" style="stop-color:#333F47"/>
				<stop  offset="1" style="stop-color:#434D54"/>
			</linearGradient>
			<path style="fill:url(#SVGID_00000083768682665972501300000009442903062940670875_);" d="M73.3,3.8c10.5,4,20.4,15,20.4,28.9
				c0,16.8-13.4,30.5-30.4,30.5v1.6c17,0,31.3-14,31.3-31.3C94.6,19.7,85.8,8.1,73.3,3.8z"/>
			
				<linearGradient id="SVGID_00000082331429567470094370000005660408881736395673_" gradientUnits="userSpaceOnUse" x1="31.0128" y1="2.1704" x2="32.0128" y2="2.1704" gradientTransform="matrix(3.479200e-06 0 0 -3.479200e-06 -45.8184 -59.3372)">
				<stop  offset="0" style="stop-color:#DEE0DD"/>
				<stop  offset="0" style="stop-color:#C5C9C7"/>
				<stop  offset="0" style="stop-color:#9EA4A5"/>
				<stop  offset="0" style="stop-color:#82898C"/>
				<stop  offset="0" style="stop-color:#71797D"/>
				<stop  offset="0" style="stop-color:#6B7378"/>
				<stop  offset="0.2" style="stop-color:#333F47"/>
				<stop  offset="0.5" style="stop-color:#27343C"/>
				<stop  offset="0.8" style="stop-color:#333F47"/>
				<stop  offset="1" style="stop-color:#434D54"/>
			</linearGradient>
			<path style="fill:url(#SVGID_00000082331429567470094370000005660408881736395673_);" d="M63.6,2.2h-0.3H63.6z"/>
			
				<linearGradient id="SVGID_00000002374597383589497300000015056908658195466880_" gradientUnits="userSpaceOnUse" x1="-78.4151" y1="230.3451" x2="-77.4151" y2="230.3451" gradientTransform="matrix(-23.4846 34.4441 34.4441 23.4846 -9687.0303 -2699.0654)">
				<stop  offset="0" style="stop-color:#27343C"/>
				<stop  offset="0.7" style="stop-color:#27343C"/>
				<stop  offset="0.7" style="stop-color:#2B373F"/>
				<stop  offset="0.7" style="stop-color:#36424A"/>
				<stop  offset="0.7" style="stop-color:#49545B"/>
				<stop  offset="0.8" style="stop-color:#646D73;stop-opacity:0"/>
				<stop  offset="0.8" style="stop-color:#868D92;stop-opacity:0"/>
				<stop  offset="0.8" style="stop-color:#B0B5B8;stop-opacity:0"/>
				<stop  offset="0.8" style="stop-color:#E1E3E4;stop-opacity:0"/>
				<stop  offset="0.8" style="stop-color:#FFFFFF;stop-opacity:0"/>
				<stop  offset="1" style="stop-color:#FFFFFF;stop-opacity:0"/>
			</linearGradient>
			<path style="fill:url(#SVGID_00000002374597383589497300000015056908658195466880_);" d="M90.1,21.7c-7-16.1-22.8-17-23.7-17.1
				h-0.1C78.4,6.8,86.1,14.7,88.8,23v0.1c1.2,3.2,1.8,6.6,1.9,10.3c0.1,3.5-0.7,7.4-2.2,11c-0.1,0.5-0.2,1.1-0.3,1.1h1.6
				C94.6,36.5,92.5,27.4,90.1,21.7z"/>
			<path class="st19" d="M33.5,33.6c0-16.4,13.3-29.9,29.8-29.9s29.8,13.4,29.8,29.9c0,16.4-13.3,29.7-29.8,29.7S33.5,50,33.5,33.6z
				 M42.8,13c-5.3,5.3-8.6,12.6-8.6,20.6s3.3,15.3,8.5,20.5c5.3,5.2,12.6,8.5,20.6,8.5s15.3-3.2,20.5-8.5c5.3-5.2,8.5-12.5,8.5-20.5
				S89,18.3,83.8,13c-5.2-5.3-12.5-8.6-20.5-8.6S48,7.7,42.8,13z"/>
			<path class="st20" d="M39.2,46.3l20.4-14.7c1.1,0.6,2.9,1.4,3.1,1.4c0.2,0.1,0.2-0.1,0.2-0.1l-2.5-2.1C60.1,30.6,60,30.3,60,30
				l2.4-24.1c-0.1,0.1-0.1,0.3-0.2,0.4c-0.1,0.2-0.1,0.3-0.1,0.5l-3.5,24.1L39.4,46C39.3,46.1,39.2,46.2,39.2,46.3z"/>
		</g>
	</g>
</g>
<path class="st21" d="M166.8,138.9h35.6c0.6,0,1.1-0.5,1.1-1.1v-8.9c0-0.6-0.5-1.1-1.1-1.1h-17.5c-0.6,0-1.1,0.5-1.1,1.1v1.6
	c0,0.6,0.5,1.1,1.1,1.1h11.5c0.2,0,0.4,0.2,0.4,0.3v1.7c0,0.2-0.2,0.4-0.4,0.4h-22.9c-0.6,0-1.1-0.5-1.1-1.1v-6.6
	c0-0.6,0.5-1.1,1.1-1.1h28.9c0.6,0,1.1-0.5,1.1-1.1v-2.4c0-0.6-0.5-1.1-1.1-1.1h-35.6c-0.6,0-1.1,0.5-1.1,1.1v16
	C165.7,138.4,166.2,138.9,166.8,138.9z M156.8,138.9h4.6c0.6,0,1.1-0.5,1.1-1.1v-16c0-0.6-0.5-1.1-1.1-1.1h-5.2
	c-0.2,0-0.4,0.1-0.6,0.2l-12.6,8.2c-0.4,0.2-0.8,0.2-1.2,0l-12.6-8.2c-0.2-0.1-0.4-0.2-0.6-0.2h-5.2c-0.6,0-1.1,0.5-1.1,1.1v16
	c0,0.6,0.5,1.1,1.1,1.1h4.6c0.6,0,1.1-0.5,1.1-1.1v-9.6c0-0.2,0.1-0.3,0.2-0.4c0.2-0.1,0.4-0.1,0.5,0l9.8,6.1
	c0.2,0.1,0.4,0.2,0.6,0.2h4.4c0.2,0,0.4-0.1,0.6-0.2l9.8-6.1c0.2-0.1,0.3-0.1,0.5,0c0.2,0.1,0.3,0.2,0.3,0.4v9.6
	C155.7,138.4,156.2,138.9,156.8,138.9L156.8,138.9z M118.1,138.9h-4.6c-0.6,0-1.1-0.5-1.1-1.1V135c0-0.2-0.2-0.4-0.4-0.4H87.9
	c-0.3,0-0.6,0.1-0.8,0.4l-2.5,3.3c-0.3,0.4-0.7,0.5-1.1,0.5h-6.3c-0.2,0-0.4-0.1-0.4-0.3c-0.1-0.2-0.1-0.4,0.1-0.5l13.1-16.9
	c0.2-0.3,0.5-0.4,0.8-0.4h27.5c0.6,0,1.1,0.5,1.1,1.1v16C119.2,138.4,118.7,138.9,118.1,138.9L118.1,138.9z M112.5,129.6v-4
	c0-0.2-0.2-0.3-0.4-0.3H95c-0.2,0-0.4,0.1-0.6,0.3l-3.1,4c-0.1,0.1-0.1,0.2,0,0.3c0.1,0.1,0.1,0.2,0.2,0.2h20.5
	C112.3,130,112.5,129.8,112.5,129.6z M33.1,138.9H17.9c-0.2,0-0.4-0.1-0.4-0.3c-0.1-0.2-0.1-0.4,0.1-0.5l13.1-16.9
	c0.2-0.3,0.5-0.4,0.8-0.4h15c0.2,0,0.4,0.1,0.5,0.3c0.1,0.2,0.1,0.4-0.1,0.6l-13,16.8C33.7,138.7,33.4,138.9,33.1,138.9z
	 M44.1,138.9h-7.2c-0.2,0-0.4-0.1-0.4-0.3c-0.1-0.2-0.1-0.4,0.1-0.5l13.1-16.9c0.2-0.3,0.5-0.4,0.8-0.4h7c0.2,0,0.4,0.1,0.5,0.3
	c0.1,0.2,0.1,0.4-0.1,0.6l-13,16.8C44.7,138.7,44.5,138.9,44.1,138.9z M54,138.9h-5.6c-0.2,0-0.4-0.1-0.4-0.3
	c-0.1-0.2-0.1-0.4,0.1-0.5l13.1-16.9c0.2-0.3,0.5-0.4,0.8-0.4h5.4c0.2,0,0.4,0.1,0.5,0.3c0.1,0.2,0.1,0.4-0.1,0.6l-13,16.8
	C54.6,138.7,54.3,138.9,54,138.9z M62.9,138.9h-3.9c-0.2,0-0.4-0.1-0.4-0.3c-0.1-0.2-0.1-0.4,0.1-0.5l13.1-16.9
	c0.2-0.3,0.5-0.4,0.8-0.4h3.7c0.2,0,0.4,0.1,0.5,0.3c0.1,0.2,0.1,0.4-0.1,0.6l-13,16.8C63.6,138.7,63.3,138.9,62.9,138.9L62.9,138.9
	z M71.5,138.9h-2.9c-0.2,0-0.4-0.1-0.4-0.3c-0.1-0.2-0.1-0.4,0.1-0.5l13.1-16.9c0.2-0.3,0.5-0.4,0.8-0.4h2.7c0.2,0,0.4,0.1,0.5,0.3
	c0.1,0.2,0.1,0.4-0.1,0.6l-13,16.8C72.1,138.7,71.8,138.9,71.5,138.9L71.5,138.9z"/>
<g transform="translate(-82.5,-54.16)">
	<path class="st22" d="M103.6,203c-1-0.6-3.1-0.9-6.2-0.9H83.9v18.2h2.9v-7h10.7c3.1,0,5.1-0.3,6.2-0.9c1.1-0.6,1.6-1.8,1.6-3.5
		v-2.3C105.2,204.9,104.7,203.7,103.6,203L103.6,203z M102.1,207.2v0.9c0,1.1-0.2,1.9-0.7,2.2c-0.5,0.3-1.6,0.5-3.3,0.5H86.8v-6.3
		h11.4c1.7,0,2.8,0.2,3.3,0.5C101.9,205.4,102.1,206.1,102.1,207.2z"/>
	<path class="st22" d="M114,204.6h16.5v-2.5h-19.4v18.2h19.4v-2.5H114v-5.7h15.8v-2.5H114L114,204.6z"/>
	<path class="st22" d="M134.7,204.6h9.5v15.8h2.9v-15.8h9.5v-2.5h-21.9L134.7,204.6z"/>
	<path class="st22" d="M182.1,203c-1-0.6-3.1-0.9-6.2-0.9H162v18.2h2.9v-7h11.4c2.4,0,3.3,0.3,3.7,0.6c0.5,0.4,0.7,1.1,0.7,2.2v4.2
		h2.9v-4.7c0-1.1-0.3-2-0.9-2.6c-0.4-0.4-0.8-0.7-1.4-0.9c0.7-0.2,1.3-0.6,1.7-0.9c0.5-0.6,0.8-1.4,0.8-2.6v-2.1
		C183.7,204.9,183.2,203.7,182.1,203L182.1,203z M180.7,207.2v0.9c0,1.1-0.2,1.8-0.7,2.2c-0.5,0.4-1.6,0.5-3.3,0.5h-11.8v-6.3h11.8
		c1.6,0,2.8,0.2,3.3,0.6C180.4,205.4,180.7,206.2,180.7,207.2z"/>
	<path class="st22" d="M212.5,203.2c-0.6-0.5-1.5-0.8-2.5-1c-1-0.2-2.5-0.3-4.6-0.3H199c-2,0-3.6,0.1-4.6,0.3c-1,0.2-1.9,0.5-2.5,1
		c-0.7,0.5-1.2,1.3-1.6,2.2c-0.3,0.9-0.5,2.1-0.5,3.6v4.8c0,1.4,0.2,2.5,0.5,3.4c0.3,0.9,0.9,1.6,1.6,2.1c0.6,0.5,1.5,0.8,2.5,1
		c1,0.2,2.5,0.3,4.6,0.3h6.4c2.1,0,3.6-0.1,4.6-0.3c1-0.2,1.8-0.5,2.5-1c0.7-0.5,1.2-1.2,1.5-2.1c0.3-0.9,0.5-2,0.5-3.4v-4.9
		c0-1.4-0.2-2.6-0.5-3.4C213.7,204.4,213.2,203.7,212.5,203.2z M206.5,218h-8.7c-1.2,0-2.1-0.1-2.8-0.3c-0.6-0.2-1.1-0.5-1.4-0.9
		c-0.2-0.3-0.4-0.7-0.5-1.1c-0.1-0.4-0.2-1.2-0.2-2.2v-4.7c0-1,0-1.8,0.2-2.2c0.1-0.4,0.3-0.8,0.5-1.1c0.3-0.4,0.8-0.7,1.4-0.9
		c0.6-0.2,1.6-0.3,2.8-0.3h8.7c1.2,0,2.1,0.1,2.8,0.3c0.6,0.2,1.1,0.5,1.4,0.9c0.2,0.3,0.4,0.6,0.5,1c0.1,0.4,0.2,1.1,0.2,2v5.2
		c0,0.9,0,1.6-0.2,2c-0.1,0.4-0.3,0.8-0.5,1c-0.3,0.4-0.8,0.7-1.4,0.9C208.7,217.9,207.7,218,206.5,218L206.5,218z"/>
	<path class="st22" d="M245.1,202.1h-2.9v15.4l-17-15.4h-4.1v18.2h2.9v-15.6l17.2,15.6h3.8L245.1,202.1z"/>
	<path class="st22" d="M261,202.1l-11.4,18.2h3.3l2.4-3.9h15l2.5,3.9h3.1l-11.5-18.2H261z M256.8,214l5.9-9.5l6,9.5H256.8z"/>
	<path class="st22" d="M301.6,212.1c-0.3-0.7-0.8-1.2-1.5-1.6c-0.5-0.3-1.1-0.5-1.9-0.6c-0.8-0.1-1.9-0.2-3.4-0.2h-6.9
		c-2.1,0-3.4-0.2-4.1-0.6c-0.6-0.4-0.9-1.1-0.9-2.1c0-1,0.3-1.7,0.9-2.1c0.6-0.4,2-0.6,3.9-0.6h6.5c1.9,0,3.1,0.2,3.7,0.6
		c0.5,0.4,0.8,1.1,0.8,2.2v0.5h2.8v-0.8c0-0.9-0.1-1.6-0.3-2.2c-0.2-0.6-0.6-1.1-1.1-1.5c-0.6-0.4-1.4-0.8-2.4-0.9
		c-1-0.2-2.7-0.2-5-0.2h-4.4c-3.2,0-5.4,0.4-6.6,1.1c-1.2,0.8-1.9,2.2-1.9,4.1c0,1.9,0.6,3.2,1.7,4c1.1,0.8,2.9,1.1,5.5,1.1h8.1
		c1.6,0,2.7,0.2,3.2,0.6c0.5,0.4,0.7,1.1,0.7,2.1c0,1.3-0.4,2.1-1.1,2.5c-0.8,0.4-2.4,0.7-5,0.7h-5c-2.1,0-3.5-0.2-4.3-0.6
		c-0.7-0.4-1-1.1-1-2.1c0-0.1,0-0.3,0-0.7l0-0.6h-2.8l0,0.2c0,0.1,0,0.1,0,0.2c0,0.5,0,0.9,0,1.1c0,1.8,0.6,3,1.8,3.8
		c1.1,0.8,3,1.1,5.6,1.1h6.5c3.1,0,5.1-0.4,6.3-1.2c1.2-0.8,1.8-2.3,1.8-4.3C302.1,213.7,301.9,212.8,301.6,212.1L301.6,212.1z"/>
</g>
<g transform="translate(-82.5,-54.16)">
	<path d="M106.2,235.4v1h-5.4v6.4h-1.1v-13.3h6.9v1h-5.8v4.9L106.2,235.4L106.2,235.4z"/>
	<path d="M120.2,236.2c0,4-2.1,6.9-5.2,6.9c-3.1,0-5.2-2.8-5.2-6.9c0-3.9,2.2-6.8,5.2-6.8C118,229.3,120.2,232.1,120.2,236.2
		L120.2,236.2z M111,236.1c0,3.5,1.6,5.9,4,5.9c2.3,0,4-2.4,4-5.9c0-3.4-1.6-5.8-4-5.8C112.6,230.3,111,232.8,111,236.1z"/>
	<path d="M126.3,229.5c2,0,2.7,0.1,3.5,0.4c1.4,0.4,2.2,1.7,2.2,3.3c0,1.8-1,2.9-2.9,3.6l3.6,6.1h-1.4l-3.6-5.9h-2.5v5.9h-1.1v-13.3
		H126.3z M126.4,235.9c1.8,0,2.2,0,2.9-0.3c1-0.4,1.6-1.2,1.6-2.5c0-1.1-0.5-2-1.4-2.3c-0.6-0.2-1.2-0.3-3.1-0.3h-1v5.4L126.4,235.9
		L126.4,235.9z"/>
	<path d="M138.4,229.5l4,12l4-12h1.8v13.3h-1.1v-12.2l-4.1,12.2h-1.1l-4.1-12.2v12.2h-1.1v-13.3H138.4z"/>
	<path d="M154,229.5v7.9c0,2.4,0.1,2.8,0.5,3.4c0.5,0.8,1.6,1.2,2.9,1.2c1.4,0,2.6-0.6,3-1.5c0.3-0.6,0.3-0.9,0.3-3.1v-7.9h1.1v7.9
		c0,2.2,0,2.4-0.3,3.1c-0.6,1.6-2.1,2.5-4.3,2.5c-1.9,0-3.4-0.7-4-2c-0.3-0.7-0.5-1.3-0.5-2.6v-8.9H154z"/>
	<path d="M167.6,229.5v12.3h5.6v1h-6.8v-13.3L167.6,229.5L167.6,229.5z"/>
	<path d="M181.7,229.4l4.6,13.4h-1.2l-1.3-3.8h-5.1l-1.3,3.8h-1.2l4.6-13.4H181.7z M181.2,231l-2.2,7h4.4L181.2,231z"/>
	<path d="M205.8,236.2c0,4-2.1,6.9-5.2,6.9c-3.1,0-5.2-2.8-5.2-6.9c0-3.9,2.2-6.8,5.2-6.8C203.7,229.3,205.8,232.1,205.8,236.2
		L205.8,236.2z M196.6,236.1c0,3.5,1.6,5.9,4,5.9c2.3,0,4-2.4,4-5.9c0-3.4-1.6-5.8-4-5.8C198.3,230.3,196.6,232.8,196.6,236.1z"/>
	<path d="M211.2,229.5l6.7,11.6v-11.6h1v13.3h-1.3l-6.6-11.6v11.6H210v-13.3H211.2z"/>
	<path d="M230.3,235.4v1h-5.4v5.4h5.9v1h-7v-13.3h6.9v1h-5.8v4.9L230.3,235.4L230.3,235.4z"/>
	<path d="M247.8,229.5v1h-3.4v12.3h-1.1v-12.3h-3.4v-1H247.8z"/>
	<path d="M257.8,235.4v1h-5.4v5.4h5.9v1h-7v-13.3h6.9v1h-5.8v4.9L257.8,235.4L257.8,235.4z"/>
	<path d="M266.5,229.4l4.6,13.4h-1.2l-1.3-3.8h-5.1l-1.3,3.8h-1.2l4.6-13.4H266.5z M266.1,231l-2.2,7h4.4L266.1,231z"/>
	<path d="M276.5,229.5l4,12l4-12h1.8v13.3h-1.1v-12.2l-4.1,12.2h-1.1l-4.1-12.2v12.2h-1.1v-13.3H276.5z"/>
</g>
</svg>
