<?xml version="1.0" encoding="utf-8"?>
<!-- Generator: Adobe Illustrator 26.3.1, SVG Export Plug-In . SVG Version: 6.00 Build 0)  -->
<svg version="1.1" id="Icons" xmlns="http://www.w3.org/2000/svg" xmlns:xlink="http://www.w3.org/1999/xlink" x="0px" y="0px"
	 viewBox="0 0 48 48" style="enable-background:new 0 0 48 48;" xml:space="preserve">
<style type="text/css">
	.st0{fill:#FFE500;}
	.st1{fill:#EBCB00;}
	.st2{fill:#FF6242;stroke:#45413C;stroke-linecap:round;stroke-linejoin:round;stroke-miterlimit:10;}
	.st3{fill:#F0D5A8;}
	.st4{fill:#F7E5C6;}
	.st5{fill:none;stroke:#45413C;stroke-linecap:round;stroke-linejoin:round;stroke-miterlimit:10;}
</style>
<g id="XMLID_13609_">
	<g id="XMLID_13610_">
		<path id="XMLID_13623_" class="st0" d="M41.7,29.6c-2.4-5.6-6.1-10.6-11.2-14.8S19.9,7.8,13.9,6.5l-1.4,5.4c-0.7,2.9-2,5.7-4,8
			l-3.1,3.7c-0.7,0.8-0.7,2.1,0,2.9c0.9,1.1,2.5,0.9,3.3-0.1l0.5-0.6L4.9,44c-0.2,0.9,0.7,1.6,1.5,1.3c1.3-0.6,3.4-1.5,5.9-2.6
			l-1.5,1.8c-0.6,0.7-0.5,1.7,0.2,2.3c0.7,0.6,1.7,0.5,2.3-0.2l4-4.8c1-1.3,2.5-2.3,3.9-3c2.9-1.3,5.9-2.6,8.9-3.9L28.3,37
			c-0.6,0.7-0.5,1.7,0.2,2.3c0.7,0.6,1.7,0.5,2.3-0.2l4.5-5.4c1-1.3,2.5-2.3,3.9-3C40.1,30.3,40.9,29.9,41.7,29.6z"/>
		<path id="XMLID_13622_" class="st1" d="M28.3,17.4c4.6,3.8,8.1,8.4,10.5,13.4c0.2,0,0.3-0.2,0.4-0.2c0.8-0.3,1.6-0.8,2.4-1.1
			c-2.4-5.6-6.1-10.6-11.2-14.8S19.9,7.8,13.9,6.5l-0.7,3.1C18.6,11,23.7,13.6,28.3,17.4z"/>
		<path id="XMLID_13621_" class="st2" d="M25.5,31.8c-2.1-1.7-5.2-1.5-6.9,0.6s-1.5,5.2,0.6,6.9c0.1,0.1,0.1,0.1,0.2,0.1
			c2.4-1.1,5.1-2.2,7.9-3.5C27.4,34.5,26.8,32.8,25.5,31.8z"/>
		<path id="XMLID_13620_" class="st2" d="M12.4,35.7c1.7-2.1,1.5-5.2-0.6-6.9c-0.8-0.7-1.9-1.1-2.9-1.1L6.6,37
			C8.5,37.9,10.9,37.5,12.4,35.7z"/>
		<circle id="XMLID_13619_" class="st2" cx="31.1" cy="25.1" r="4.9"/>
		<path id="XMLID_13618_" class="st3" d="M30.5,14.7c5,4.2,8.7,9.2,11.2,14.8c0,0,1.9,2,3.7,0.4c4.7-3.9-7.9-16.5-11.4-19.4
			s-18.2-13-21.2-7.7c-1.2,2.1,1.1,3.6,1.1,3.6C19.9,7.8,25.5,10.6,30.5,14.7z"/>
		<path id="XMLID_13617_" class="st4" d="M12.7,3c5.6-0.4,16.6,7.1,19.6,9.6c3,2.5,12.4,11.9,13,17.5c0.1-0.1,0.1-0.1,0.1-0.2
			c4.7-3.9-7.9-16.5-11.4-19.4s-18.2-13-21.2-7.7C12.8,2.9,12.8,2.9,12.7,3z"/>
		<path id="XMLID_13616_" class="st5" d="M30.5,14.7c5,4.2,8.7,9.2,11.2,14.8c0,0,1.9,2,3.7,0.4c4.7-3.9-7.9-16.5-11.4-19.4
			s-18.2-13-21.2-7.7c-1.2,2.1,1.1,3.6,1.1,3.6C19.9,7.8,25.5,10.6,30.5,14.7z"/>
		<circle id="XMLID_13615_" class="st2" cx="18.1" cy="17.8" r="4.9"/>
		<line id="XMLID_13614_" class="st5" x1="9.3" y1="25.8" x2="10.9" y2="23.9"/>
		<path id="XMLID_13613_" class="st5" d="M41.7,29.6c-2.4-5.6-6.1-10.6-11.2-14.8S19.9,7.8,13.9,6.5l-1.4,5.4c-0.7,2.9-2,5.7-4,8
			l-3.1,3.7c-0.7,0.8-0.7,2.1,0,2.9c0.9,1.1,2.5,0.9,3.3-0.1l0.5-0.6L4.9,44c-0.2,0.9,0.7,1.6,1.5,1.3c1.3-0.6,3.4-1.5,5.9-2.6
			l-1.5,1.8c-0.6,0.7-0.5,1.7,0.2,2.3c0.7,0.6,1.7,0.5,2.3-0.2l4-4.8c1-1.3,2.5-2.3,3.9-3c2.9-1.3,5.9-2.6,8.9-3.9L28.3,37
			c-0.6,0.7-0.5,1.7,0.2,2.3c0.7,0.6,1.7,0.5,2.3-0.2l4.5-5.4c1-1.3,2.5-2.3,3.9-3C40.1,30.3,40.9,29.9,41.7,29.6z"/>
		<line id="XMLID_13612_" class="st5" x1="14" y1="40.6" x2="12.3" y2="42.6"/>
		<line id="XMLID_13611_" class="st5" x1="31.4" y1="33.2" x2="30.2" y2="34.7"/>
	</g>
</g>
</svg>
