<?xml version="1.0" encoding="utf-8"?>
<!-- Generator: Adobe Illustrator 26.3.1, SVG Export Plug-In . SVG Version: 6.00 Build 0)  -->
<svg version="1.1" id="Layer_1" xmlns="http://www.w3.org/2000/svg" xmlns:xlink="http://www.w3.org/1999/xlink" x="0px" y="0px"
	 viewBox="0 0 151 101" style="enable-background:new 0 0 151 101;" xml:space="preserve">
<style type="text/css">
	.st0{fill:#003372;}
	.st1{fill:#FCB813;}
</style>
<g>
	<g id="Mask_Group_141" transform="translate(-1 -36)">
		<g id="snhu-logo-short" transform="translate(68.503 45.943)">
			<path id="Path_4309" class="st0" d="M-46.1,51.4c-0.4-3.2-1.2-6.6-5.5-6.6c-2.4,0-3.8,2.2-3.8,4.5c0,8.6,20.3,9.4,20.3,25.4
				c0,9.1-6.3,15.5-16,15.5c-10.3-0.1-14.5-6-15.6-15.3l9.8-1.5c0.9,5.6,2.2,8,6.3,8c2.2,0.1,4.1-1.7,4.2-3.9c0-0.1,0-0.3,0-0.4
				c0-8.3-19.5-8.8-19.5-26.6c0-8.4,6.2-14.6,14.9-14.6s13.1,6.1,13.9,14L-46.1,51.4z"/>
			<path id="Path_4310" class="st0" d="M-30.7,36.7h12.5v5h0.2c2.9-2.9,6.6-5.9,11.4-5.9c5.9,0,8.8,4,8.8,10.9v42.5h-12.5V51.2
				c0-4-1.4-5.2-3.6-5.2c-1.6,0-3.2,0.8-4.2,2v41.4h-12.6V36.7z"/>
			<path id="Path_4311" class="st0" d="M7.3,14.9h12.5v26.9h0.2c2.9-2.9,6.6-5.9,11.4-5.9c5.9,0,8.8,4,8.8,10.9v42.5H27.6V51.2
				c0-4-1.4-5.2-3.6-5.2c-1.6,0-3.2,0.8-4.2,2v41.4H7.3V14.9z"/>
			<path id="Path_4312" class="st0" d="M78.4,89.3H65.8v-5h-0.2c-2.9,2.9-6.6,5.9-10.8,5.9c-5.7,0-9.3-4.3-9.3-10.9V36.7H58v38.1
				c0,4,1.4,5.2,3.6,5.2c1.6,0,3.2-0.8,4.2-2V36.7h12.5V89.3z"/>
			<path id="Path_4313" class="st1" d="M24.5,33c0,0,1.5-7.6,7.1-9.1c7.6-2,18.5-2.5,23-3.6c6.7-1.6,12.2-6.4,15.3-9.5
				c4.9-4.9,9-16.6,7.4-19.9s3.2,6.9-16.3,8C45.5-0.9,43.2,1,41.3,1.9c-9.4,5-13.4,16-12.3,18.4c0,0,8.8-11.6,18.3-13.6
				s18.5-1.8,20.6-4.9c-4.2,2.8-8.9,4.8-13.9,6c-10.6,2.6-13.3,4.6-13.3,4.6s-13.2,7.9-17.3,19.9"/>
		</g>
	</g>
</g>
</svg>
