<?xml version="1.0" encoding="UTF-8"?>
<svg id="Layer_1" xmlns="http://www.w3.org/2000/svg" version="1.1" viewBox="0 0 1024 1024">
  <!-- Generator: Adobe Illustrator 29.8.1, SVG Export Plug-In . SVG Version: 2.1.1 Build 2)  -->
  <defs>
    <style>
      .st0 {
        fill: #9f50d9;
      }

      .st1 {
        fill: #e99618;
      }

      .st2 {
        fill: #616264;
      }

      .st3 {
        fill: #1d68d1;
      }
    </style>
  </defs>
  <path class="st0" d="M1019.03,296.72c-163.87,0-296.72,132.85-296.72,296.72,0-163.87-132.85-296.72-296.72-296.72,163.87,0,296.72-132.85,296.72-296.72,0,163.87,132.85,296.72,296.72,296.72Z"/>
  <path class="st3" d="M718.46,715.85c-109.57,0-198.4,88.83-198.4,198.4,0-109.57-88.83-198.4-198.4-198.4,109.57,0,198.4-88.83,198.4-198.4,0,109.57,88.83,198.4,198.4,198.4Z"/>
  <path class="st1" d="M472.46,457.85c-80.85,0-146.4,65.55-146.4,146.4,0-80.85-65.55-146.4-146.4-146.4,80.85,0,146.4-65.55,146.4-146.4,0,80.85,65.55,146.4,146.4,146.4Z"/>
  <path class="st2" d="M635.75,1025.78h-370.84c-69.61,0-135.23-27.28-184.77-76.81S3.33,833.81,3.33,764.2v-370.84c0-69.61,27.28-135.23,76.81-184.77,49.53-49.53,115.15-76.81,184.77-76.81h207.53c16.57,0,30,13.43,30,30s-13.43,30-30,30h-207.53c-111.15,0-201.58,90.43-201.58,201.58v370.84c0,111.15,90.43,201.58,201.58,201.58h370.84c111.15,0,201.58-90.43,201.58-201.58v-204.23c0-16.57,13.43-30,30-30s30,13.43,30,30v204.23c0,69.62-27.28,135.23-76.81,184.77s-115.15,76.81-184.77,76.81Z"/>
</svg>