<?xml version="1.0" encoding="utf-8"?>
<!-- Generator: Adobe Illustrator 26.3.1, SVG Export Plug-In . SVG Version: 6.00 Build 0)  -->
<svg version="1.1" id="Layer_1" xmlns="http://www.w3.org/2000/svg" xmlns:xlink="http://www.w3.org/1999/xlink" x="0px" y="0px"
	 viewBox="0 0 500 500" style="enable-background:new 0 0 500 500;" xml:space="preserve">
<style type="text/css">
	.st0{fill:#FFFFFF;}
</style>
<path d="M302.4,372c2.8,2.7,5.4,5.1,7.9,7.7c16.7,17,33.6,34,50.1,51.2c12.4,12.9,24.1,26.6,35.1,40.8c3.1,4,6,8,8.9,12
	c0.2,0.2,0.4,0.4,0.5,0.7c0.1,0.4,0.4,1,0.3,1.1c-0.3,0.3-0.8,0.5-1.2,0.5c-2.6-0.2-5.3-0.5-7.9-0.8c-13.7-1.5-26.8-5.1-39.6-9.9
	c-18.7-7-36.3-16.4-53.5-26.6c-17.1-10.1-33.4-21.3-49.4-33c-3.4-2.5-3.7-2.5-7.1,0c-20.9,15.4-42.6,29.7-65.4,42.1
	c-11.4,6.2-23.1,11.9-35.2,16.7c-10.7,4.2-21.7,7.6-33.1,9.5c-5.2,0.9-10.5,1.3-15.7,1.9c-0.7,0.1-1.5,0-2.7,0
	c0.7-1.1,1.2-1.8,1.7-2.6c11.5-16.4,24.3-31.8,38.1-46.4c8-8.4,16.1-16.7,24.2-24.9c12.4-12.7,24.9-25.3,37.3-37.9
	c0.6-0.6,1.2-1.3,2.1-2.3c-0.4-0.3-0.8-0.4-1.1-0.7c-11.2-9.9-22.4-19.8-33.6-29.7c-14.5-12.9-29.1-25.8-43.6-38.7
	c-3.2-2.8-3.2-2.8-0.9-6.3c4.5-6.8,7.1-14.3,8.3-22.3c0.3-1.8,0.4-3.7,0.6-5.5c0.3-2.5-0.6-4.4-2.1-6.3c-4.1-5-9-9.2-14.3-12.9
	c-8.2-5.7-16.6-11-25.6-15.2C74,228.6,65.1,220.2,58,209.6c-2.8-4.3-5.8-8.5-8.7-12.8c-3-4.5-7.4-6.6-12.7-6.9
	c-4.2-0.2-8.4,0.1-12.6,0.2c-1.4,0-2.9,0.2-4.3,0.2c-2.8,0-5-1.1-6.5-3.4c-5.6-8.6-9.2-17.9-8.7-28.4c0.2-5,1.3-9.8,3.4-14.3
	c4.7-10.1,14.4-14.9,25.5-12.9c6.9,1.3,13,4.3,18.2,9c15.3,13.8,30.5,27.6,45.8,41.4c19.5,17.6,38.9,35.2,58.3,52.8
	c8.6,7.8,17.1,15.6,25.6,23.4c22,20.3,44,40.6,66,60.9c0.8,0.8,1.7,1.5,2.7,2.4c0.8-0.7,1.5-1.3,2.2-2c16.6-15.3,33.1-30.7,49.8-46
	c19.3-17.6,38.6-35.1,58-52.6c8.4-7.6,16.7-15.2,25.1-22.8c20.9-19,41.8-38,62.7-56.9c4.8-4.4,10.2-7.8,16.6-9.3
	c4.1-1,8.2-1.1,12.3-0.4c5.2,0.9,9.5,3.6,12.6,7.9c4.7,6.6,6.9,14,6.4,22c-0.4,7.6-2.9,14.7-6.1,21.5c-0.6,1.3-1.5,2.6-2.4,3.8
	c-2,2.8-4.7,4-8.1,3.8c-3.9-0.3-7.8-0.5-11.8-0.7c-7.7-0.4-13.7,2.5-18,9.1c-4.3,6.5-8.8,12.8-13.4,19.1c-3.5,4.8-8.1,8.4-13.2,11.5
	c-4.4,2.7-8.9,5.1-13.4,7.7c-6.3,3.7-12.5,7.5-18.7,11.4c-2.9,1.8-5.5,4-8.1,6.3c-2.8,2.4-5.3,5-8,7.5c-1.6,1.5-2.5,3.2-2.2,5.3
	c0.5,4.2,1,8.4,1.9,12.5c1.3,5.8,3.7,11.3,7.1,16.2c0.3,0.5,0.6,1,0.9,1.5c0.7,1.4,0.5,2.6-0.4,3.8c-0.5,0.5-1,1-1.5,1.5
	c-10.2,9-20.4,18-30.6,27c-15,13.3-30.1,26.6-45.1,40C304.1,370.5,303.5,371.1,302.4,372z M125.2,301.6c1.1,1,2,1.8,3,2.7
	c14.5,13.1,29,26.3,43.6,39.3c22.7,20.2,46.1,39.5,70.3,58c9.4,7.2,19.1,14.1,28.8,20.9c20.5,14.4,41.7,27.5,64.3,38.6
	c12.2,6,24.7,11.2,37.8,15c7.2,2.1,14.6,3.6,22,4.8c0.4,0.1,0.8-0.1,1.5-0.1c-0.7-1.1-1.2-1.9-1.8-2.7c-5.4-6.4-10.8-13-16.4-19.3
	c-20-22.3-40.9-43.8-62.6-64.5c-23.6-22.6-47.5-44.9-71.3-67.2c-8.4-7.9-16.9-15.6-25.4-23.4c-17-15.6-34.1-31.2-51.1-46.7
	c-0.7-0.6-1.4-1.1-2.2-1.8C152.2,270.6,138.9,285.9,125.2,301.6z M334.5,254.9c-26.4,24-52.6,47.9-78.9,71.8
	c14.8,14.2,29.3,28.2,44,42.3c25.3-22.5,50.5-44.8,75.7-67.3C361.7,286.1,348.2,270.6,334.5,254.9z M104,480.1
	c0.1,0.2,0.2,0.4,0.3,0.6c0.8-0.1,1.7-0.1,2.5-0.2c8.3-1.3,16.4-3.1,24.4-5.6c13.5-4.3,26.4-10.1,39.1-16.4
	c23.2-11.7,44.8-25.8,65.9-40.8c0.6-0.4,1.1-1,1.9-1.7c-14.2-11-28.1-21.7-42.2-32.6c-0.5,0.5-1,0.9-1.5,1.3
	c-11.5,11.4-23,22.7-34.4,34.1c-8.5,8.5-16.8,17.1-25.1,25.8c-10.2,10.7-19.9,21.9-29.3,33.3C105.1,478.7,104.6,479.4,104,480.1z
	 M376.9,298.9c0.1-0.1,0.3-0.2,0.4-0.3c-0.2-0.4-0.3-0.9-0.5-1.3c-1.5-2.9-3.1-5.8-4.6-8.7c-2.1-3.9-3.8-7.8-4.8-12.1
	c-1.1-4.6-3.3-8.6-6.6-12.1c-5.1-5.3-10-10.8-15-16.2c-0.5-0.5-0.8-1.1-1.3-1.9c-2.7,2.4-5.1,4.5-7.5,6.7
	C350.3,268.5,363.6,283.7,376.9,298.9z M156.3,246.7c-0.5,0.4-1,0.7-1.3,1c-6.6,7.2-13.2,14.4-19.8,21.7c-0.6,0.6-1.1,1.6-1.2,2.4
	c-0.5,5.6-2.4,10.7-5,15.6c-1.7,3.2-3.5,6.2-5.2,9.4c-0.3,0.6-0.6,1.2-0.9,1.8c0.2,0.1,0.3,0.2,0.5,0.3
	c13.3-15.3,26.6-30.5,40.1-45.9C161,250.9,158.7,248.9,156.3,246.7z M75.5,204.9c3.6,0,6.8-3.1,6.8-6.6c0-3.4-3.1-6.6-6.5-6.7
	c-3.7-0.1-6.9,3-6.9,6.7C69,201.8,72,204.9,75.5,204.9z M424.8,191.7c-3.7-0.1-6.7,2.8-6.8,6.5c0,3.5,2.9,6.6,6.4,6.7
	c3.6,0.1,6.8-2.9,6.9-6.5C431.5,194.7,428.6,191.8,424.8,191.7z M112.9,232.3c0,3.7,3,6.8,6.6,6.8c3.5,0,6.6-3.1,6.7-6.5
	c0.1-3.6-3-6.7-6.6-6.7C115.9,225.9,113,228.7,112.9,232.3z M475.1,162.7c0-3.6-2.8-6.6-6.4-6.7c-3.6-0.1-6.7,3-6.8,6.6
	c0,3.6,3.1,6.7,6.7,6.7C472.2,169.2,475.1,166.3,475.1,162.7z M379.5,225.9c-3.7-0.1-6.8,2.9-6.8,6.5c0,3.5,3.2,6.7,6.8,6.7
	c3.4,0,6.4-3,6.6-6.4C386.2,229,383.3,225.9,379.5,225.9z M38.3,162.7c0-3.5-2.9-6.6-6.4-6.7c-3.6-0.1-6.7,3-6.7,6.6
	c0,3.6,2.9,6.6,6.4,6.6C35.3,169.3,38.3,166.4,38.3,162.7z"/>
<path d="M354.5,147.9c-2.2,22.5-3.6,45-4.5,67.7c-0.7-0.1-1.2-0.1-1.6-0.2c-14.9-4-30-6.7-45.2-8.5c-22.7-2.7-45.5-3.5-68.3-2.7
	c-11.1,0.4-22.3,1.1-33.4,2.1c-16.1,1.4-32.1,3.5-48,6.5c-0.3,0.1-0.7,0.1-1.4,0.2c1.4-17.7,2.4-35.4,3-53.1c-2.5-0.6-4.8-1.2-7-1.8
	c-9.6-2.7-18.5-6.8-26.4-12.9c-10.7-8.2-18.2-18.7-22.3-31.5c-6.7-21-4.4-41.2,5.8-60.6c5.2-10,12.2-18.5,21.2-25.3
	c9.8-7.5,21-11.8,33.2-13.5c16-2.2,31.6-0.1,47.1,4.1c15.6,4.2,30.3,10.6,44.6,17.9c4.7,2.4,9.5,4.7,14.3,6.7
	c6,2.5,12.3,3.2,18.7,2.8c11-0.6,21.7-2.8,32.3-5.1c11.1-2.5,22.2-4,33.6-3.2c15.4,1.1,28.8,6.6,40.2,17.1
	c9.1,8.5,15.2,18.7,17.6,31c2.6,13.7,0.4,26.5-7.6,38c-5.6,8.1-13.5,13.7-22.5,17.6c-6.6,2.9-13.6,4.8-20.7,6
	C356.3,147.5,355.5,147.7,354.5,147.9z M278.7,60c3.8,2,7.2,4,10.7,5.7c7.8,3.8,15.9,6.2,24.6,6.8c7.3,0.5,14.4-0.3,21.5-2
	c0.6-0.1,1.1-0.2,2-0.3c-1.8,2.8-4,4.5-6.3,6c-7.3,4.6-15.3,5.8-23.7,5c-8.1-0.8-15.6-3.4-22.8-6.9c-6.7-3.2-12.9-7.4-19.1-11.5
	c-12.8-8.5-25.9-16.5-40-22.8c-13.2-5.9-26.8-10.4-41.3-11.5c-17.4-1.3-33.2,2.8-47.2,13.3c-7.1,5.3-13.1,11.4-17,19.5
	c-6.6,13.4-8.7,27.6-6.6,42.3c1.1,7.6,3.4,14.9,7.6,21.4c7.4,11.6,18.1,18.6,31.3,22c0.3,0.1,0.7,0.1,1.2,0.1
	c4.2-12.3,8.4-24.6,12.6-36.9c0,15.2-0.3,30.4-0.7,45.5c-0.3,15.2-0.9,30.4-1.2,45.6c58.2-9.4,115.9-8,173.7,2.5
	c3.1-19.2,3-38.5,4.4-57.7c-6.9-1.9-13.3-4.5-19-8.5c-0.4,0.1-0.6,0.2-0.8,0.3c-16.2,6.8-33,8.5-50.2,5.1
	c-16.8-3.2-31.7-10.5-44.1-22.3c-8.2-7.8-14.5-16.9-18.2-27.7c-0.3-0.8-0.5-1.6-0.7-2.3c0.7,0.3,1.2,0.8,1.6,1.3
	c7.9,9.4,16.9,17.7,27.3,24.3c8.5,5.4,17.6,9.5,27.3,12c17.9,4.6,35.7,3.8,53.4-1.3c13.8-4,26.5-10.3,38.4-18.3
	c0.6-0.4,1.3-0.8,1.9-1.2c-7.2,10.7-16.4,19.3-27.9,26.1c0.9,0.2,1.3,0.3,1.7,0.4c3.4,0.4,6.8,0.9,10.2,1.1c7.7,0.5,15.4,0.1,23-2
	c12-3.4,20.6-10.6,24.7-22.6c1.7-5,2.8-10.2,2.6-15.6c-0.3-9-3.6-16.8-9.2-23.8c-5.6-6.9-12.8-11.8-20.9-15.3
	c-8.5-3.7-17.4-4.8-26.6-4c-8.6,0.8-16.8,3.1-25.2,5.1c-6.7,1.6-13.4,3.2-20.3,3.3C287.3,60.4,283.2,60.1,278.7,60z"/>
<path class="st0" d="M125.2,301.6c13.7-15.7,27-31,40.5-46.5c0.8,0.7,1.5,1.2,2.2,1.8c17.1,15.6,34.1,31.1,51.1,46.7
	c8.5,7.8,17,15.5,25.4,23.4c23.8,22.4,47.7,44.7,71.3,67.2c21.6,20.7,42.5,42.2,62.6,64.5c5.6,6.3,11,12.8,16.4,19.3
	c0.6,0.7,1.1,1.6,1.8,2.7c-0.8,0.1-1.2,0.2-1.5,0.1c-7.4-1.2-14.7-2.7-22-4.8c-13.1-3.8-25.6-9-37.8-15
	c-22.5-11-43.8-24.2-64.3-38.6c-9.7-6.8-19.3-13.7-28.8-20.9c-24.2-18.4-47.6-37.7-70.3-58c-14.6-13-29.1-26.2-43.6-39.3
	C127.2,303.4,126.3,302.5,125.2,301.6z"/>
<path class="st0" d="M334.5,254.9c13.7,15.7,27.2,31.2,40.8,46.9c-25.3,22.4-50.4,44.8-75.7,67.3c-14.7-14.1-29.2-28.1-44-42.3
	C281.9,302.8,308.1,279,334.5,254.9z"/>
<path class="st0" d="M104,480.1c0.5-0.7,1-1.5,1.6-2.1c9.4-11.4,19.1-22.6,29.3-33.3c8.3-8.7,16.6-17.3,25.1-25.8
	c11.4-11.5,22.9-22.8,34.4-34.1c0.4-0.4,0.9-0.9,1.5-1.3c14,10.8,28,21.6,42.2,32.6c-0.8,0.7-1.3,1.3-1.9,1.7
	c-21.1,15-42.7,29.2-65.9,40.8c-12.6,6.4-25.5,12.1-39.1,16.4c-8,2.5-16.1,4.4-24.4,5.6c-0.8,0.1-1.7,0.1-2.5,0.2
	C104.3,480.5,104.2,480.3,104,480.1z"/>
<path class="st0" d="M376.9,298.9c-13.3-15.2-26.6-30.4-40-45.8c2.4-2.2,4.8-4.3,7.5-6.7c0.5,0.7,0.9,1.3,1.3,1.9
	c5,5.4,10,10.8,15,16.2c3.3,3.5,5.4,7.5,6.6,12.1c1.1,4.3,2.8,8.2,4.8,12.1c1.6,2.9,3.1,5.8,4.6,8.7c0.2,0.4,0.3,0.9,0.5,1.3
	C377.2,298.7,377,298.8,376.9,298.9z"/>
<path class="st0" d="M156.3,246.7c2.4,2.1,4.7,4.2,7.2,6.4c-13.5,15.4-26.8,30.6-40.1,45.9c-0.2-0.1-0.3-0.2-0.5-0.3
	c0.3-0.6,0.6-1.2,0.9-1.8c1.7-3.1,3.6-6.2,5.2-9.4c2.6-4.9,4.5-10,5-15.6c0.1-0.9,0.6-1.8,1.2-2.4c6.6-7.3,13.2-14.5,19.8-21.7
	C155.3,247.4,155.8,247.2,156.3,246.7z"/>
<path class="st0" d="M75.5,204.9c-3.5,0-6.5-3.1-6.6-6.6c0-3.7,3.2-6.9,6.9-6.7c3.4,0.1,6.5,3.3,6.5,6.7
	C82.3,201.8,79.1,204.9,75.5,204.9z"/>
<path class="st0" d="M424.8,191.7c3.8,0.1,6.7,3.1,6.6,6.7c-0.1,3.6-3.3,6.6-6.9,6.5c-3.5-0.1-6.5-3.1-6.4-6.7
	C418.1,194.5,421.1,191.6,424.8,191.7z"/>
<path class="st0" d="M112.9,232.3c0-3.6,3-6.5,6.6-6.5c3.7,0,6.7,3.1,6.6,6.7c-0.1,3.5-3.2,6.5-6.7,6.5
	C115.9,239.1,112.9,236,112.9,232.3z"/>
<path class="st0" d="M475.1,162.7c0,3.6-2.9,6.6-6.5,6.6c-3.6,0-6.7-3-6.7-6.7c0-3.6,3.1-6.7,6.8-6.6
	C472.3,156.1,475.2,159.1,475.1,162.7z"/>
<path class="st0" d="M379.5,225.9c3.7,0.1,6.6,3.1,6.5,6.8c-0.1,3.4-3.2,6.4-6.6,6.4c-3.5,0-6.8-3.2-6.8-6.7
	C372.7,228.8,375.9,225.8,379.5,225.9z"/>
<path class="st0" d="M38.3,162.7c0,3.7-3,6.6-6.7,6.6c-3.5-0.1-6.4-3-6.4-6.6c0-3.7,3.1-6.7,6.7-6.6
	C35.4,156.1,38.4,159.1,38.3,162.7z"/>
<path class="st0" d="M278.7,60c4.5,0.2,8.6,0.5,12.6,0.4c6.9-0.1,13.6-1.7,20.3-3.3c8.3-2,16.6-4.4,25.2-5.1
	c9.2-0.8,18.1,0.3,26.6,4c8.1,3.5,15.3,8.4,20.9,15.3c5.6,6.9,8.9,14.8,9.2,23.8c0.2,5.3-0.8,10.5-2.6,15.6
	c-4.1,12-12.7,19.2-24.7,22.6c-7.5,2.1-15.2,2.5-23,2c-3.4-0.2-6.8-0.7-10.2-1.1c-0.4,0-0.8-0.2-1.7-0.4
	c11.5-6.8,20.7-15.4,27.9-26.1c-0.6,0.4-1.3,0.8-1.9,1.2c-11.9,8-24.6,14.3-38.4,18.3c-17.7,5.1-35.4,5.9-53.4,1.3
	c-9.8-2.5-18.8-6.6-27.3-12c-10.4-6.6-19.3-14.9-27.3-24.3c-0.4-0.5-0.8-0.9-1.6-1.3c0.2,0.8,0.5,1.6,0.7,2.3
	c3.7,10.8,10,19.9,18.2,27.7c12.5,11.8,27.3,19.1,44.1,22.3c17.2,3.3,34,1.7,50.2-5.1c0.2-0.1,0.4-0.1,0.8-0.3c5.6,4,12,6.6,19,8.5
	c-1.4,19.2-1.3,38.5-4.4,57.7c-57.8-10.5-115.6-11.8-173.7-2.5c0.3-15.3,0.9-30.4,1.2-45.6c0.3-15.1,0.7-30.3,0.7-45.5
	c-4.2,12.3-8.4,24.5-12.6,36.9c-0.5,0-0.9,0-1.2-0.1c-13.2-3.4-23.9-10.4-31.3-22c-4.2-6.5-6.6-13.8-7.6-21.4
	c-2.1-14.8,0.1-28.9,6.6-42.3c3.9-8.1,10-14.2,17-19.5c14-10.5,29.8-14.6,47.2-13.3c14.5,1.1,28.1,5.6,41.3,11.5
	c14.1,6.3,27.2,14.3,40,22.8c6.2,4.1,12.3,8.3,19.1,11.5c7.3,3.5,14.8,6.1,22.8,6.9c8.4,0.8,16.4-0.5,23.7-5c2.4-1.5,4.5-3.2,6.3-6
	c-0.9,0.1-1.5,0.2-2,0.3c-7.1,1.7-14.2,2.5-21.5,2c-8.7-0.6-16.9-3-24.6-6.8C285.9,63.9,282.5,62,278.7,60z M178.3,166.5
	c31.8-4.5,63.7-5.9,95.8-4C241.7,152.3,209.7,152.1,178.3,166.5z"/>
<path d="M178.3,166.5c31.4-14.4,63.4-14.2,95.8-4C242,160.6,210.1,162,178.3,166.5z"/>
</svg>
