<?xml version="1.0" encoding="UTF-8"?>
<svg id="Layer_1" xmlns="http://www.w3.org/2000/svg" version="1.1" viewBox="0 0 110 110">
  <!-- Generator: Adobe Illustrator 30.1.0, SVG Export Plug-In . SVG Version: 2.1.1 Build 136)  -->
  <defs>
    <style>
      .st0 {
        fill: #ff7a59;
      }
    </style>
  </defs>
  <path class="st0" d="M82.29,36.79v-12.7c3.43-1.6,5.62-5.03,5.64-8.82v-.29c0-5.4-4.38-9.78-9.78-9.78h-.29c-5.4,0-9.78,4.38-9.78,9.78h0v.29c.02,3.78,2.21,7.22,5.64,8.82v12.7c-4.82.74-9.37,2.74-13.17,5.8L25.7,15.45c.25-.9.38-1.82.39-2.74.01-6.09-4.91-11.03-11-11.04-6.09-.01-11.03,4.91-11.04,11-.01,6.09,4.91,11.03,11,11.04,0,0,0,0,0,0,1.91,0,3.78-.52,5.43-1.48l34.3,26.69c-6.31,9.53-6.14,21.94.42,31.3l-10.43,10.44c-.84-.27-1.72-.41-2.61-.42-5,0-9.05,4.06-9.04,9.06,0,5,4.06,9.05,9.06,9.04,4.99,0,9.04-4.05,9.04-9.04-.01-.89-.15-1.76-.42-2.61l10.32-10.33c12.18,9.38,29.65,7.1,39.03-5.08,9.38-12.18,7.1-29.65-5.08-39.03-3.74-2.88-8.14-4.76-12.8-5.46M78.01,78.56c-7.88.22-14.45-6-14.67-13.88-.22-7.88,6-14.45,13.88-14.67.26,0,.52,0,.79,0,7.88.28,14.05,6.89,13.77,14.77-.26,7.49-6.27,13.5-13.76,13.77"/>
</svg>