<?xml version="1.0" encoding="UTF-8"?>
<svg id="Layer_1" xmlns="http://www.w3.org/2000/svg" version="1.1" xmlns:xlink="http://www.w3.org/1999/xlink" viewBox="0 0 32 32">
  <!-- Generator: Adobe Illustrator 30.1.0, SVG Export Plug-In . SVG Version: 2.1.1 Build 136)  -->
  <defs>
    <style>
      .st0 {
        fill: url(#linear-gradient1);
      }

      .st1 {
        fill: #2684ff;
      }

      .st2 {
        fill: url(#linear-gradient);
      }
    </style>
    <linearGradient id="linear-gradient" x1="22.28" y1="24.67" x2="17.16" y2="19.24" gradientTransform="translate(0 34) scale(1 -1)" gradientUnits="userSpaceOnUse">
      <stop offset=".18" stop-color="#0052cc"/>
      <stop offset="1" stop-color="#2684ff"/>
    </linearGradient>
    <linearGradient id="linear-gradient1" x1="16.5" y1="18.64" x2="10.58" y2="12.7" gradientTransform="translate(0 34) scale(1 -1)" gradientUnits="userSpaceOnUse">
      <stop offset=".18" stop-color="#0052cc"/>
      <stop offset="1" stop-color="#2684ff"/>
    </linearGradient>
  </defs>
  <g id="logo-gradient-blue-jira">
    <g id="Icon">
      <path id="Vector" class="st1" d="M27.79,3.5h-12.4c0,2.99,2.51,5.43,5.59,5.43h2.29v2.12c0,2.99,2.51,5.43,5.59,5.43V4.54c0-.59-.47-1.04-1.08-1.04Z"/>
      <path id="Vector_2" class="st2" d="M21.66,9.49h-12.4c0,2.99,2.51,5.43,5.59,5.43h2.29v2.16c0,2.99,2.51,5.43,5.59,5.43v-11.98c0-.56-.47-1.04-1.08-1.04Z"/>
      <path id="Vector_3" class="st0" d="M15.53,15.51H3.13c0,2.99,2.51,5.43,5.59,5.43h2.29v2.12c0,2.99,2.51,5.43,5.59,5.43v-11.94c0-.59-.5-1.04-1.08-1.04Z"/>
    </g>
  </g>
</svg>