<?xml version="1.0" encoding="UTF-8"?>
<svg id="Layer_1" xmlns="http://www.w3.org/2000/svg" version="1.1" xmlns:xlink="http://www.w3.org/1999/xlink" viewBox="0 0 110 110">
  <!-- Generator: Adobe Illustrator 30.1.0, SVG Export Plug-In . SVG Version: 2.1.1 Build 136)  -->
  <defs>
    <style>
      .st0 {
        fill: url(#linear-gradient2);
      }

      .st1 {
        fill-opacity: .32;
      }

      .st2 {
        fill: url(#linear-gradient1);
      }

      .st3 {
        fill: url(#linear-gradient4);
        isolation: isolate;
        opacity: .7;
      }

      .st4 {
        fill: url(#linear-gradient3);
      }

      .st5 {
        fill-opacity: .24;
      }

      .st6 {
        fill: url(#linear-gradient);
      }
    </style>
    <linearGradient id="linear-gradient" x1="22.49" y1="439.31" x2="34.17" y2="483.69" gradientTransform="translate(0 -376)" gradientUnits="userSpaceOnUse">
      <stop offset="0" stop-color="#159455"/>
      <stop offset="1" stop-color="#3fbda9"/>
    </linearGradient>
    <linearGradient id="linear-gradient1" x1="29.17" y1="380.73" x2="96.93" y2="410.85" gradientTransform="translate(0 -376)" gradientUnits="userSpaceOnUse">
      <stop offset="0" stop-color="#23a794"/>
      <stop offset=".57" stop-color="#007a84"/>
      <stop offset="1" stop-color="#005158"/>
    </linearGradient>
    <linearGradient id="linear-gradient2" x1="76.73" y1="425.13" x2="64.47" y2="393.01" gradientTransform="translate(0 -376)" gradientUnits="userSpaceOnUse">
      <stop offset="0" stop-color="#004a8b"/>
      <stop offset=".41" stop-color="#105da8" stop-opacity=".5"/>
      <stop offset="1" stop-color="#2170c6" stop-opacity="0"/>
    </linearGradient>
    <linearGradient id="linear-gradient3" x1="23.98" y1="408.23" x2="85.3" y2="438.59" gradientTransform="translate(0 -376)" gradientUnits="userSpaceOnUse">
      <stop offset="0" stop-color="#7fd9a2"/>
      <stop offset=".2" stop-color="#47bf79"/>
      <stop offset=".71" stop-color="#009280"/>
      <stop offset="1" stop-color="#007a84"/>
    </linearGradient>
    <linearGradient id="linear-gradient4" x1="23.52" y1="409.33" x2="37.53" y2="416.34" gradientTransform="translate(0 -376)" gradientUnits="userSpaceOnUse">
      <stop offset="0" stop-color="#a8e47c" stop-opacity=".86"/>
      <stop offset=".37" stop-color="#87d152" stop-opacity=".2"/>
      <stop offset="1" stop-color="#58be5a" stop-opacity="0"/>
    </linearGradient>
  </defs>
  <path class="st6" d="M11.75,66.36h33.64l-19.79,39.57c-1.32,3.3-5.94,3.3-7.25,0l-13.85-27.7c-2.64-5.28,1.32-11.87,7.25-11.87Z"/>
  <path class="st2" d="M42.09,1.07h46.17c13.19,0,21.76,13.85,15.83,25.06l-15.17,30.34h0l-2.64,5.28,2.64-5.28c5.28-11.87-2.64-25.06-15.83-25.06H30.88c-3.3,0-5.28-3.3-3.96-5.94L38.13,3.71c1.32-1.98,2.64-2.64,3.96-2.64Z"/>
  <path class="st0" d="M42.09,1.07h46.17c13.19,0,21.76,13.85,15.83,25.06l-15.17,30.34h0l-1.32,3.3,1.32-3.3c5.94-11.87-2.64-25.06-15.83-25.06H30.88c-3.3,0-5.28-3.3-3.96-5.94L38.13,3.71c1.32-1.98,2.64-2.64,3.96-2.64Z"/>
  <path class="st5" d="M73.09,67.02H11.75c-3.3,0-5.94,1.98-7.25,4.62l15.17-30.34c1.32-2.64,4.62-4.62,7.25-4.62h61.33c6.6,0,12.53-3.96,15.83-9.89l1.32-1.98-16.49,32.32c-3.3,5.94-9.23,9.89-15.83,9.89Z"/>
  <path class="st1" d="M73.09,69H11.75c-3.3,0-5.94,1.98-7.25,4.62l15.17-30.34c1.32-3.3,4.62-4.62,7.25-4.62h61.33c6.6,0,12.53-3.96,15.83-9.89l.66-1.98-15.83,32.32c-3.3,5.94-9.23,9.89-15.83,9.89Z"/>
  <path class="st4" d="M73.09,66.36H11.75c-3.3,0-5.94,1.98-7.25,4.62l15.17-30.34c1.32-2.64,4.62-4.62,7.25-4.62h61.33c6.6,0,12.53-3.96,15.83-9.89l1.32-1.98-16.49,32.98c-3.3,5.94-9.23,9.23-15.83,9.23Z"/>
  <path class="st3" d="M73.09,66.36H12.41c-3.3,0-5.94,1.98-7.25,4.62l15.17-30.34c1.32-2.64,4.62-4.62,7.25-4.62h61.33c6.6,0,12.53-3.3,15.17-9.23l-15.17,30.34c-3.3,5.94-9.23,9.23-15.83,9.23Z"/>
</svg>