<?xml version="1.0" encoding="UTF-8"?>
<svg id="Layer_1" xmlns="http://www.w3.org/2000/svg" version="1.1" xmlns:xlink="http://www.w3.org/1999/xlink" viewBox="0 0 50 50">
  <!-- Generator: Adobe Illustrator 30.1.0, SVG Export Plug-In . SVG Version: 2.1.1 Build 136)  -->
  <defs>
    <style>
      .st0 {
        fill: url(#linear-gradient2);
      }

      .st1 {
        fill: #fff;
      }

      .st2 {
        fill: url(#linear-gradient1);
      }

      .st3 {
        fill: url(#radial-gradient);
      }

      .st4 {
        fill: url(#radial-gradient5);
      }

      .st5 {
        fill: url(#radial-gradient1);
      }

      .st6 {
        fill: url(#linear-gradient3);
      }

      .st7 {
        fill: url(#radial-gradient6);
      }

      .st8 {
        fill: url(#radial-gradient2);
      }

      .st9 {
        fill: url(#radial-gradient4);
      }

      .st10 {
        fill: url(#radial-gradient3);
      }

      .st11 {
        fill: url(#linear-gradient);
      }
    </style>
    <linearGradient id="linear-gradient" x1="12.09" y1="-102.92" x2="31.54" y2="-77.39" gradientTransform="translate(0 106)" gradientUnits="userSpaceOnUse">
      <stop offset="0" stop-color="#00e3df"/>
      <stop offset=".41" stop-color="#0097a8"/>
      <stop offset="1" stop-color="#007791"/>
    </linearGradient>
    <radialGradient id="radial-gradient" cx="-1056.74" cy="-547.59" fx="-1056.74" fy="-547.59" r=".09" gradientTransform="translate(130020.07 -346650.01) rotate(-112.48) scale(256.36 461.43) skewX(-.11)" gradientUnits="userSpaceOnUse">
      <stop offset=".29" stop-color="#003b5d" stop-opacity=".2"/>
      <stop offset=".61" stop-color="#004a6c" stop-opacity=".14"/>
      <stop offset=".97" stop-color="#006f94" stop-opacity="0"/>
    </radialGradient>
    <radialGradient id="radial-gradient1" cx="-1065.12" cy="-543.64" fx="-1065.12" fy="-543.64" r=".09" gradientTransform="translate(109382.53 -292832.01) rotate(-112.09) scale(216.37 388.98) skewX(-.11)" gradientUnits="userSpaceOnUse">
      <stop offset=".26" stop-color="#002a42" stop-opacity=".31"/>
      <stop offset=".61" stop-color="#004261" stop-opacity=".21"/>
      <stop offset=".97" stop-color="#006f94" stop-opacity="0"/>
    </radialGradient>
    <radialGradient id="radial-gradient2" cx="-1019.27" cy="-650.33" fx="-1019.27" fy="-650.33" r=".09" gradientTransform="translate(-201682.41 85540.15) rotate(124.49) scale(181.07 181.17) skewX(.08)" gradientUnits="userSpaceOnUse">
      <stop offset="0" stop-color="#78edff" stop-opacity=".7"/>
      <stop offset="1" stop-color="#2ccfca" stop-opacity="0"/>
    </radialGradient>
    <linearGradient id="linear-gradient1" x1="26.96" y1="-88.74" x2="43.17" y2="-67.46" gradientTransform="translate(0 106)" gradientUnits="userSpaceOnUse">
      <stop offset="0" stop-color="#00e3df"/>
      <stop offset=".48" stop-color="#00a2b8"/>
      <stop offset=".95" stop-color="#00637c"/>
    </linearGradient>
    <radialGradient id="radial-gradient3" cx="-1025.4" cy="-520.73" fx="-1025.4" fy="-520.73" r=".09" gradientTransform="translate(210563.03 -113339.26) rotate(-70.77) scale(171.87 310.04) skewX(.1)" gradientUnits="userSpaceOnUse">
      <stop offset="0" stop-color="#003b5d" stop-opacity=".5"/>
      <stop offset=".49" stop-color="#004c6c" stop-opacity=".36"/>
      <stop offset=".97" stop-color="#007a86" stop-opacity="0"/>
    </radialGradient>
    <radialGradient id="radial-gradient4" cx="-1021.08" cy="-665.59" fx="-1021.08" fy="-665.59" r=".09" gradientTransform="translate(-170104.6 70221.99) rotate(124.49) scale(150.89 150.97) skewX(.08)" gradientUnits="userSpaceOnUse">
      <stop offset="0" stop-color="#78edff" stop-opacity=".7"/>
      <stop offset="1" stop-color="#2ccfca" stop-opacity="0"/>
    </radialGradient>
    <linearGradient id="linear-gradient2" x1="18.04" y1="-77.36" x2="28.37" y2="-56.69" gradientTransform="translate(0 106)" gradientUnits="userSpaceOnUse">
      <stop offset=".05" stop-color="#75fff6"/>
      <stop offset=".51" stop-color="#00c7d1"/>
      <stop offset=".96" stop-color="#0096ad"/>
    </linearGradient>
    <linearGradient id="linear-gradient3" x1="31.56" y1="-55.31" x2="26.03" y2="-63.06" gradientTransform="translate(0 106)" gradientUnits="userSpaceOnUse">
      <stop offset=".26" stop-color="#0e5a5d" stop-opacity=".32"/>
      <stop offset=".54" stop-color="#126c6b" stop-opacity=".22"/>
      <stop offset=".97" stop-color="#1c948a" stop-opacity="0"/>
    </linearGradient>
    <radialGradient id="radial-gradient5" cx="-966.13" cy="-581.86" fx="-966.13" fy="-581.86" r=".09" gradientTransform="translate(85632.72 344547.98) rotate(44.96) scale(314.99) skewX(-.09)" gradientUnits="userSpaceOnUse">
      <stop offset=".06" stop-color="#00b6bd"/>
      <stop offset=".89" stop-color="#00495c"/>
    </radialGradient>
    <radialGradient id="radial-gradient6" cx="-967.03" cy="-642.51" fx="-967.03" fy="-642.51" r=".09" gradientTransform="translate(-114109.88 150689.84) rotate(90) scale(155.79 177.62)" gradientUnits="userSpaceOnUse">
      <stop offset=".57" stop-color="#1e8581" stop-opacity="0"/>
      <stop offset=".97" stop-color="#1ecbe6" stop-opacity=".6"/>
    </radialGradient>
  </defs>
  <g id="surface1">
    <path class="st11" d="M21.38,29.86c8.07,0,14.61-6.53,14.61-14.58S29.45.69,21.38.69,6.78,7.22,6.78,15.28s6.54,14.58,14.61,14.58Z"/>
    <path class="st3" d="M21.38,29.86c8.07,0,14.61-6.53,14.61-14.58S29.45.69,21.38.69,6.78,7.22,6.78,15.28s6.54,14.58,14.61,14.58Z"/>
    <path class="st5" d="M21.38,29.86c8.07,0,14.61-6.53,14.61-14.58S29.45.69,21.38.69,6.78,7.22,6.78,15.28s6.54,14.58,14.61,14.58Z"/>
    <path class="st8" d="M21.38,29.86c8.07,0,14.61-6.53,14.61-14.58S29.45.69,21.38.69,6.78,7.22,6.78,15.28s6.54,14.58,14.61,14.58Z"/>
    <path class="st2" d="M34.7,39.58c6.72,0,12.17-5.44,12.17-12.15s-5.45-12.15-12.17-12.15-12.17,5.44-12.17,12.15,5.45,12.15,12.17,12.15Z"/>
    <path class="st10" d="M34.7,39.58c6.72,0,12.17-5.44,12.17-12.15s-5.45-12.15-12.17-12.15-12.17,5.44-12.17,12.15,5.45,12.15,12.17,12.15Z"/>
    <path class="st9" d="M34.7,39.58c6.72,0,12.17-5.44,12.17-12.15s-5.45-12.15-12.17-12.15-12.17,5.44-12.17,12.15,5.45,12.15,12.17,12.15Z"/>
    <path class="st0" d="M23.21,49.31c5.71,0,10.35-4.62,10.35-10.33s-4.63-10.33-10.35-10.33-10.35,4.62-10.35,10.33,4.63,10.33,10.35,10.33Z"/>
    <path class="st6" d="M23.21,49.31c5.71,0,10.35-4.62,10.35-10.33s-4.63-10.33-10.35-10.33-10.35,4.62-10.35,10.33,4.63,10.33,10.35,10.33Z"/>
    <path class="st4" d="M7.08,23.78h11.57c2.18,0,3.95,1.77,3.95,3.95v11.54c0,2.18-1.77,3.95-3.95,3.95H7.08c-2.18,0-3.95-1.77-3.95-3.95v-11.54c0-2.18,1.77-3.95,3.95-3.95Z"/>
    <path class="st7" d="M7.08,23.78h11.57c2.18,0,3.95,1.77,3.95,3.95v11.54c0,2.18-1.77,3.95-3.95,3.95H7.08c-2.18,0-3.95-1.77-3.95-3.95v-11.54c0-2.18,1.77-3.95,3.95-3.95Z"/>
    <path class="st1" d="M8.67,36.88l2.11-1.1c.24.48.55.83.93,1.06.39.23.81.34,1.27.34.51,0,.9-.1,1.17-.31.27-.21.4-.53.4-.95,0-.33-.13-.61-.39-.84-.26-.23-.72-.41-1.37-.53-1.25-.23-2.16-.63-2.73-1.19-.56-.57-.85-1.28-.85-2.12,0-1.05.37-1.9,1.12-2.53.74-.63,1.73-.94,2.95-.94.82,0,1.55.17,2.17.5.63.34,1.12.82,1.49,1.44l-2.06,1.06c-.23-.35-.47-.6-.74-.76-.26-.16-.59-.24-.99-.24-.48,0-.84.1-1.09.31-.24.21-.36.48-.36.81,0,.28.12.53.35.75.24.21.71.39,1.43.52,1.2.23,2.1.64,2.69,1.24.6.59.89,1.35.89,2.26,0,1.11-.35,1.98-1.06,2.63-.71.65-1.72.97-3.03.97-.95,0-1.81-.21-2.58-.62-.76-.42-1.33-1-1.72-1.75h0Z"/>
  </g>
</svg>