<?xml version="1.0" encoding="utf-8"?>
<!-- Generator: Adobe Illustrator 26.3.1, SVG Export Plug-In . SVG Version: 6.00 Build 0)  -->
<svg version="1.1" xmlns="http://www.w3.org/2000/svg" xmlns:xlink="http://www.w3.org/1999/xlink" x="0px" y="0px"
	 viewBox="0 0 500 500" style="enable-background:new 0 0 500 500;" xml:space="preserve">
<style type="text/css">
	.st0{display:none;}
	.st1{display:inline;}
	.st2{fill:#0064C8;}
	.st3{fill:#FFFFFF;}
</style>
<g id="Layer_1" class="st0">
	<g class="st1">
		<circle class="st2" cx="278.13" cy="212.74" r="147"/>
		<path d="M278.13,75.74c75.66,0,137,61.34,137,137s-61.34,137-137,137s-137-61.34-137-137S202.47,75.74,278.13,75.74 M278.13,55.74
			c-41.94,0-81.36,16.33-111.02,45.98s-45.98,69.08-45.98,111.02s16.33,81.36,45.98,111.02s69.08,45.98,111.02,45.98
			s81.36-16.33,111.02-45.98s45.98-69.08,45.98-111.02s-16.33-81.36-45.98-111.02S320.07,55.74,278.13,55.74L278.13,55.74z"/>
	</g>
	<g class="st1">
		<path class="st3" d="M180.89,158.18c-3.03,5.39-5.63,11.05-7.75,16.94l17.91-10.35l21.19-12.26L245.99,133l21.62-12.5v87.51
			l-5.19,3.01l-16.43,9.5l-68.87,39.82L155,273.14c-3.91-8.01-7.07-16.45-9.37-25.24l23.05-13.34l68.73-39.73l8.57-4.96v-25.19
			l-7.92,4.58l-21.19,12.26l-50.26,29.06L141.66,225c-0.34-3.99-0.53-8.01-0.53-12.09c0-6.84,0.51-13.56,1.47-20.14
			c1.51-10.33,4.18-20.28,7.86-29.72c18.71-48,63.63-82.86,117.15-86.94v25.6c-5.28,0.49-10.44,1.36-15.49,2.56
			c-21.33,5.1-40.28,16.33-54.88,31.73c-1.32,1.4-2.62,2.83-3.86,4.3C188.66,145.82,184.47,151.8,180.89,158.18z"/>
		<path class="st3" d="M389.21,293.21c-1.63,2.28-3.34,4.5-5.11,6.66c-6.45,7.88-13.75,15.02-21.78,21.28
			c-8.53,6.67-17.87,12.35-27.85,16.86c-6.98,3.15-14.25,5.73-21.78,7.7c-7.54,1.96-15.32,3.29-23.3,3.93
			c-3.72,0.3-7.47,0.47-11.27,0.47c-3.54,0-7.05-0.14-10.51-0.4c-3.38-0.26-6.73-0.64-10.03-1.14c-10.32-1.56-20.28-4.26-29.72-7.99
			c-10.4-4.12-20.18-9.46-29.15-15.86c-6.29-4.5-12.2-9.52-17.64-14.99c-5.47-5.5-10.48-11.47-14.97-17.84l22.16-12.81l79.35-45.88
			l15.34-8.86l6.45,4.17l15.16,9.83l-15.16,8.77l-21.78,12.59l-63.54,36.74c5.95,5.3,12.49,9.98,19.49,13.91l44.05-25.47l21.78-12.6
			l23.3-13.46l12.4-7.18l9.38,6.08l17.29,11.21l-17.29,10l-21.78,12.6l-23.3,13.47l-21.78,12.59l-9.15,5.29
			c3.01,0.54,6.06,0.94,9.15,1.23c3.47,0.32,6.97,0.5,10.51,0.5c3.8,0,7.56-0.19,11.27-0.56c5.12-0.52,10.14-1.39,15.05-2.57
			c2.8-0.68,5.54-1.47,8.25-2.35c7.66-2.49,14.95-5.79,21.78-9.81c8.99-5.28,17.18-11.77,24.34-19.28c1.2-1.25,2.37-2.55,3.51-3.86
			c1.92-2.21,3.75-4.49,5.49-6.85l4.49,2.91l11.8,7.65L389.21,293.21z"/>
		<path class="st3" d="M415.13,212.92c0,6.88-0.51,13.64-1.49,20.25c-1.52,10.34-4.2,20.3-7.9,29.75c-1.55,3.98-3.3,7.87-5.2,11.66
			l-7.06-4.58l-9.38-6.08l-5.09-3.3c1.5-3.18,2.87-6.44,4.07-9.78c0.35-0.99,0.69-1.99,1.02-2.99c3.48-10.57,5.41-21.83,5.55-33.54
			c0.01-0.46,0.02-0.92,0.02-1.4c0-7.7-0.78-15.22-2.27-22.49c-0.86-4.25-1.97-8.39-3.31-12.45c-1.11-3.38-2.39-6.7-3.8-9.93
			c-2.94-6.72-6.53-13.08-10.67-19.02c-2.28-3.25-4.71-6.39-7.32-9.39v110.16l-16.05-10.41l-11.8-7.65V116.5
			c-0.86-0.5-1.72-0.99-2.59-1.48c-6.07-3.35-12.5-6.15-19.2-8.33v110.94l-8.55-5.54l-14.75-9.57V76.19
			c3.17,0.26,6.31,0.62,9.42,1.09c4.71,0.71,9.33,1.67,13.87,2.85c5.41,1.41,10.69,3.13,15.82,5.17c2,0.79,4,1.64,5.96,2.52
			c7.87,3.56,15.35,7.86,22.35,12.79c1.86,1.31,3.7,2.67,5.49,4.08c4.31,3.36,8.41,6.98,12.28,10.82c3.35,3.32,6.52,6.82,9.5,10.46
			c2.71,3.3,5.26,6.74,7.66,10.28c4.05,6.01,7.63,12.36,10.71,18.99c3.24,7,5.91,14.31,7.95,21.89c1.98,7.38,3.37,15,4.1,22.82
			C414.91,204.21,415.13,208.54,415.13,212.92z"/>
	</g>
</g>
<g id="Layer_1_copy">
	<g>
		<path class="st2" d="M444.44,347.77c-5.32,10.54-11.47,20.59-18.37,30.06l-4.83-3.14l-19.07-12.36l-7.26-4.7
			c-2.81,3.81-5.77,7.5-8.87,11.05c-1.86,2.13-3.73,4.22-5.67,6.25c-11.57,12.14-24.81,22.62-39.33,31.16
			c-11.05,6.5-22.82,11.83-35.2,15.85c-4.38,1.42-8.81,2.7-13.33,3.8c-7.92,1.91-16.03,3.31-24.32,4.15c-6,0.6-12.06,0.9-18.2,0.9
			c-5.74,0-11.39-0.29-17-0.81c-4.99-0.47-9.92-1.12-14.79-2l14.79-8.55l35.2-20.33l37.65-21.77l35.2-20.36l27.94-16.16
			l-27.94-18.12l-15.16-9.84l-20.04,11.6l-37.65,21.75l-35.2,20.36l-71.18,41.16c-11.31-6.37-21.86-13.93-31.5-22.49l102.68-59.37
			l35.2-20.33l24.5-14.19l-24.5-15.87l-10.41-6.74l-24.79,14.32l-128.23,74.16l-32.27,18.65c-6.79-9.55-12.81-19.67-18.02-30.27
			l32.29-18.66l111.29-64.35l26.55-15.35l8.39-4.86V100.97l-34.94,20.18l-54.54,31.54l-34.24,19.8l-28.94,16.73
			c3.41-9.52,7.63-18.66,12.52-27.37c5.79-10.31,12.56-19.97,20.2-28.89c2-2.36,4.09-4.69,6.24-6.95
			c23.59-24.87,54.2-43.03,88.68-51.28c8.14-1.94,16.48-3.33,25.02-4.14v-37.6c5.61-0.44,11.28-0.66,17-0.66
			c6.12,0,12.2,0.27,18.2,0.78v200.41l23.84,15.45l13.82,8.95V78.63c10.81,3.52,21.2,8.05,31.01,13.48c1.41,0.78,2.8,1.57,4.19,2.38
			v186.24l19.07,12.36l25.94,16.82V131.9c4.2,4.83,8.14,9.91,11.81,15.16c6.69,9.62,12.49,19.89,17.24,30.75
			c2.28,5.22,4.35,10.57,6.14,16.03c2.15,6.56,3.94,13.27,5.35,20.12c2.39,11.75,3.65,23.9,3.65,36.34c0,0.76-0.02,1.5-0.03,2.25
			c-0.23,18.92-3.35,37.12-8.97,54.2c-0.53,1.62-1.08,3.23-1.65,4.83c-1.96,5.38-4.15,10.67-6.58,15.8l8.23,5.33l15.16,9.83
			L444.44,347.77z"/>
		<path class="st2" d="M198.05,172.34v40.71l-13.85,8.02l-111.07,64.2l-33.82,19.57c-3.12-11.99-5.24-24.39-6.27-37.09l36.75-21.23
			l81.22-46.96l34.24-19.81L198.05,172.34z"/>
		<path class="st3" d="M92.85,161.84c-4.9,8.71-9.11,17.86-12.52,27.37l28.94-16.73l34.24-19.8l54.54-31.54l34.94-20.18v141.41
			l-8.39,4.86l-26.55,15.35L86.76,326.94l-32.29,18.66c-6.35-12.93-11.46-26.57-15.16-40.77l33.82-19.57l111.07-64.2l13.85-8.02
			v-40.71l-12.8,7.4l-34.24,19.81l-81.22,46.96l-36.75,21.23c-0.48-5.85-0.73-11.76-0.73-17.74c0-114.31,88.56-208.32,200.67-217.03
			v37.6c-8.53,0.81-16.87,2.2-25.02,4.14c-34.49,8.24-65.09,26.41-88.68,51.28c-2.15,2.26-4.23,4.59-6.24,6.95
			C105.41,141.87,98.64,151.53,92.85,161.84z"/>
		<path class="st3" d="M426.07,377.83c-39.61,54.41-103.78,89.85-176.08,89.85c-73.16,0-138.02-36.28-177.5-91.8l32.27-18.65
			l128.23-74.16l24.79-14.32l10.41,6.74l24.5,15.87l-24.5,14.19l-35.2,20.33l-102.68,59.37c9.63,8.56,20.18,16.13,31.5,22.49
			l71.18-41.16l35.2-20.36l37.65-21.75l20.04-11.6l15.16,9.84l27.94,18.12l-27.94,16.16l-35.2,20.36l-37.65,21.77l-35.2,20.33
			l-14.79,8.55c4.86,0.89,9.79,1.54,14.79,2c5.61,0.52,11.26,0.81,17,0.81c6.14,0,12.2-0.31,18.2-0.9
			c8.29-0.84,16.4-2.25,24.32-4.15c4.52-1.1,8.95-2.38,13.33-3.8c12.38-4.02,24.14-9.36,35.2-15.85
			c14.53-8.53,27.76-19.02,39.33-31.16c1.94-2.04,3.81-4.12,5.67-6.25c3.1-3.56,6.06-7.24,8.87-11.05l7.26,4.7l19.07,12.36
			L426.07,377.83z"/>
		<path class="st3" d="M467.68,250.01c0,35.13-8.39,68.34-23.24,97.77l-8.05-5.24l-15.16-9.83l-8.23-5.33
			c2.42-5.14,4.62-10.42,6.58-15.8c0.57-1.6,1.12-3.22,1.65-4.83c5.62-17.08,8.74-35.28,8.97-54.2c0.02-0.74,0.03-1.49,0.03-2.25
			c0-12.44-1.26-24.6-3.65-36.34c-1.41-6.85-3.2-13.56-5.35-20.12c-1.79-5.46-3.86-10.81-6.14-16.03
			c-4.75-10.86-10.55-21.14-17.24-30.75c-3.67-5.25-7.61-10.33-11.81-15.16v178.02l-25.94-16.82l-19.07-12.36V94.49
			c-1.39-0.81-2.78-1.6-4.19-2.38c-9.81-5.43-20.2-9.95-31.01-13.48v179.28l-13.82-8.95l-23.84-15.45V33.1
			C379.74,42.37,467.68,136.11,467.68,250.01z"/>
		<path d="M249.99,0C112.15,0,0,112.15,0,250.01C0,387.85,112.15,500,249.99,500C387.85,500,500,387.85,500,250.01
			C500,112.15,387.85,0,249.99,0z M426.07,377.83c-39.61,54.41-103.78,89.85-176.08,89.85c-73.16,0-138.02-36.28-177.5-91.8
			c-6.79-9.55-12.81-19.67-18.02-30.27c-6.35-12.93-11.46-26.57-15.16-40.77c-3.12-11.99-5.24-24.39-6.27-37.09
			c-0.48-5.85-0.73-11.76-0.73-17.74c0-114.31,88.56-208.32,200.67-217.03c5.61-0.44,11.28-0.66,17-0.66c6.12,0,12.2,0.27,18.2,0.78
			c111.55,9.28,199.49,103.02,199.49,216.91c0,35.13-8.39,68.34-23.24,97.77C439.13,358.31,432.97,368.36,426.07,377.83z"/>
	</g>
</g>
</svg>
